<?xml version="1.0" standalone="no"?>
<!DOCTYPE svg PUBLIC "-//W3C//DTD SVG 20010904//EN"
 "http://www.w3.org/TR/2001/REC-SVG-20010904/DTD/svg10.dtd">
<svg version="1.0" xmlns="http://www.w3.org/2000/svg"
 width="3437.000000pt" height="2750.000000pt" viewBox="0 0 3437.000000 2750.000000"
 preserveAspectRatio="xMidYMid meet">
<metadata>
Created by potrace 1.15, written by Peter Selinger 2001-2017
</metadata>
<g transform="translate(0.000000,2750.000000) scale(0.100000,-0.100000)"
fill="#000000" stroke="none">
<path d="M25150 26243 c-130 -38 -157 -51 -196 -89 -36 -36 -44 -52 -59 -119
-30 -135 -5 -226 96 -345 191 -226 408 -584 712 -1176 211 -410 233 -458 308
-670 l81 -229 24 -210 c19 -169 24 -263 24 -487 l0 -277 -45 -285 c-24 -156
-78 -457 -119 -668 -62 -317 -87 -424 -149 -625 -69 -225 -79 -251 -157 -390
-97 -174 -243 -365 -427 -561 -146 -154 -260 -239 -478 -352 -168 -88 -222
-125 -341 -235 -89 -82 -96 -86 -433 -254 -302 -151 -355 -175 -449 -197 -89
-22 -121 -25 -191 -20 -47 4 -86 8 -88 10 -2 2 1 41 7 87 5 46 10 138 10 204
0 66 5 211 11 322 10 182 10 209 -6 273 -10 42 -31 91 -50 119 -31 45 -34 56
-45 182 -25 283 -70 392 -209 503 -33 27 -88 83 -122 125 -34 42 -108 123
-165 181 -66 68 -126 142 -170 210 -65 101 -128 191 -202 292 -20 26 -73 78
-119 115 -46 37 -142 134 -214 216 -72 81 -137 147 -145 147 -8 0 -14 7 -14
15 0 8 -16 22 -37 30 -20 8 -33 18 -30 21 6 6 -35 44 -47 44 -4 0 -23 16 -42
35 -19 20 -53 43 -75 51 -21 9 -39 21 -39 28 0 6 -10 16 -23 22 -97 49 -127
67 -127 75 0 6 -4 7 -10 4 -5 -3 -10 -3 -10 2 0 9 -56 43 -72 43 -5 0 -23 10
-40 21 -43 31 -209 50 -275 32 -26 -8 -59 -19 -72 -26 -32 -16 -81 -62 -81
-76 0 -6 -4 -11 -10 -11 -5 0 -12 -17 -16 -37 -4 -21 -9 -42 -13 -48 -21 -36
-24 -135 -7 -210 12 -51 31 -90 68 -145 28 -41 56 -79 62 -85 22 -20 63 -80
70 -103 4 -12 12 -20 17 -17 5 4 9 -1 9 -9 0 -9 5 -16 10 -16 6 0 10 -7 10
-15 0 -8 5 -15 10 -15 6 0 10 -7 10 -15 0 -8 5 -15 10 -15 6 0 10 -8 10 -19 0
-10 7 -25 16 -32 9 -7 20 -22 25 -34 9 -21 21 -41 54 -90 24 -36 42 -65 51
-85 4 -8 29 -48 56 -88 26 -41 48 -77 48 -82 0 -5 6 -13 13 -17 19 -11 58 -79
50 -86 -3 -4 2 -9 11 -13 9 -3 16 -12 16 -20 0 -8 3 -14 8 -14 4 0 16 -17 27
-37 11 -21 35 -60 53 -88 17 -27 32 -53 32 -57 0 -5 9 -17 20 -28 12 -12 18
-25 15 -30 -4 -6 -3 -10 2 -10 17 0 56 -93 94 -222 37 -125 40 -150 61 -413
l21 -280 -32 -227 c-26 -185 -48 -440 -51 -576 0 -13 -3 -21 -7 -19 -5 3 -7
-16 -5 -42 4 -57 -84 -331 -153 -475 -24 -50 -56 -117 -70 -148 -15 -31 -33
-62 -41 -69 -8 -6 -14 -17 -14 -23 0 -6 -20 -41 -45 -78 -25 -37 -45 -70 -45
-73 0 -3 -16 -27 -35 -54 -19 -26 -35 -53 -35 -60 0 -6 -5 -11 -11 -11 -5 0
-8 -4 -5 -9 3 -4 -5 -22 -18 -40 -13 -18 -30 -46 -36 -62 -7 -16 -16 -29 -21
-29 -5 0 -6 -7 -3 -15 4 -8 1 -15 -6 -15 -6 0 -8 -4 -5 -10 6 -10 -7 -57 -54
-188 -23 -65 -41 -97 -85 -145 -30 -34 -68 -80 -84 -102 -16 -22 -40 -46 -54
-54 -14 -7 -31 -24 -37 -37 -6 -14 -22 -29 -36 -34 -14 -5 -25 -14 -25 -19 0
-5 -13 -14 -30 -20 -27 -9 -30 -14 -30 -55 0 -38 4 -48 29 -65 16 -12 34 -21
39 -21 5 0 31 -20 58 -45 27 -26 57 -45 70 -45 12 0 24 -3 26 -7 2 -5 24 -19
51 -32 26 -13 45 -26 42 -29 -6 -6 31 -32 80 -57 22 -11 64 -39 93 -62 30 -24
57 -43 61 -43 4 0 60 -51 124 -114 102 -99 130 -120 212 -161 52 -25 97 -51
101 -56 7 -12 92 -50 149 -69 22 -6 67 -25 100 -40 118 -55 131 -59 199 -70
38 -6 74 -13 79 -17 5 -3 41 -6 81 -8 l72 -3 34 54 c41 64 83 123 105 145 8 9
15 21 15 27 0 7 4 12 8 12 4 0 21 20 36 45 16 25 33 45 37 45 5 0 20 17 33 38
13 20 34 48 47 62 13 13 24 28 24 31 0 9 68 69 78 69 4 0 7 7 7 15 0 8 5 15
11 15 15 0 129 112 129 128 0 6 5 12 10 12 6 0 18 8 28 18 28 28 75 59 102 67
14 4 32 13 40 20 8 7 31 15 52 19 20 4 56 17 80 30 25 13 60 27 79 31 18 4 40
11 49 16 20 12 169 59 186 59 7 0 27 12 45 27 18 15 39 28 46 28 19 0 142 111
175 156 24 33 45 48 143 97 89 45 112 51 147 41 18 -5 114 -25 213 -45 622
-123 937 -211 1235 -344 217 -96 789 -325 875 -350 l59 -17 27 -94 c15 -52 43
-132 62 -179 19 -47 37 -98 41 -115 16 -68 150 -413 176 -455 15 -25 45 -79
66 -120 21 -41 47 -91 59 -110 33 -53 217 -385 264 -475 37 -72 96 -152 254
-345 29 -36 85 -109 125 -162 56 -76 92 -112 169 -171 54 -41 108 -88 120
-105 13 -17 53 -50 90 -72 38 -23 97 -59 132 -81 77 -48 231 -127 321 -164
140 -58 235 -95 243 -95 4 0 49 -23 99 -52 63 -35 146 -99 266 -202 96 -83
220 -190 275 -239 112 -96 180 -166 266 -272 31 -38 60 -72 65 -74 23 -10 181
-195 253 -296 94 -134 104 -157 130 -315 2 -14 4 -50 4 -80 0 -91 27 -241 64
-364 19 -64 35 -123 35 -132 0 -29 41 -156 70 -219 16 -33 41 -91 56 -130 40
-104 119 -229 184 -293 221 -219 260 -258 260 -265 0 -5 29 -52 64 -105 118
-181 222 -357 248 -422 14 -36 52 -119 83 -185 32 -66 73 -160 92 -210 19 -49
47 -115 62 -145 16 -30 40 -87 54 -126 14 -40 37 -94 51 -120 14 -27 44 -88
66 -136 34 -72 55 -100 126 -170 60 -59 98 -88 132 -100 59 -22 192 -24 230
-4 36 18 104 140 133 235 20 69 21 85 15 280 -4 113 -13 244 -21 291 -8 47
-17 119 -20 160 -3 41 -14 116 -25 168 -20 96 -114 398 -130 417 -5 6 -29 74
-54 151 -25 77 -57 169 -72 204 -14 36 -32 89 -40 119 -8 30 -19 60 -23 65 -5
6 -21 63 -36 126 -39 168 -76 283 -116 362 -12 23 -11 31 2 23 5 -4 2 10 -7
32 -9 21 -36 83 -59 138 -57 139 -104 208 -158 235 -30 15 -86 78 -130 145
-14 22 -40 85 -58 140 -17 55 -38 113 -46 128 -8 15 -23 69 -34 120 -19 92
-74 299 -109 412 -10 33 -21 76 -24 95 -16 92 -31 134 -84 243 -47 97 -48 98
-23 92 14 -4 50 -17 79 -31 29 -13 59 -24 67 -24 43 0 175 -55 225 -94 102
-79 259 -178 401 -252 14 -7 34 -24 45 -36 36 -40 113 -157 134 -202 11 -25
24 -46 29 -48 19 -6 108 -194 114 -238 5 -40 38 -129 69 -184 5 -10 21 -55 34
-99 13 -43 35 -104 49 -133 14 -30 37 -98 50 -151 14 -53 29 -101 35 -107 5
-5 10 -23 10 -38 0 -15 9 -51 20 -80 11 -29 20 -70 20 -91 0 -21 12 -79 27
-128 47 -156 135 -229 279 -229 39 0 84 5 101 10 31 11 88 74 125 137 12 21
35 56 50 77 15 21 28 43 28 47 0 5 14 39 31 76 17 38 33 84 36 103 3 19 14 52
25 73 11 21 26 82 34 135 8 53 27 151 43 217 16 66 36 154 45 195 36 165 48
569 20 715 -8 44 -19 109 -24 143 -20 130 -80 300 -152 437 -36 66 -168 233
-227 287 -113 101 -241 173 -351 198 -59 13 -249 77 -340 115 -79 33 -117 43
-185 50 -58 6 -137 24 -220 48 -31 9 -79 50 -215 182 -96 93 -188 186 -205
206 -31 38 -90 82 -235 176 -47 30 -92 61 -100 68 -8 7 -28 16 -45 20 -16 4
-77 29 -135 56 -101 46 -112 49 -280 70 -290 35 -321 38 -425 39 -66 0 -124 7
-170 20 -38 11 -86 20 -106 20 -20 0 -70 11 -110 24 -41 13 -90 28 -109 31
-66 14 -155 62 -330 179 -247 165 -364 250 -466 336 -48 41 -122 96 -163 122
-66 40 -89 64 -182 184 -60 76 -107 140 -105 141 2 2 28 -12 59 -30 162 -98
356 -159 514 -161 68 -1 71 -2 55 -19 -19 -22 -6 -52 23 -52 31 0 42 31 20 56
-11 12 -14 19 -7 15 7 -4 12 -2 12 5 0 7 10 9 25 7 14 -3 22 -1 19 4 -4 5 4 9
17 7 13 -1 37 3 52 9 15 7 40 15 55 18 49 12 103 48 167 111 34 35 68 63 74
63 6 0 11 7 11 15 0 9 7 18 15 21 8 4 13 10 10 14 -3 4 2 13 10 20 8 7 15 19
15 26 0 8 9 19 20 26 11 7 20 18 20 25 0 7 5 13 11 13 5 0 8 4 4 9 -3 5 7 36
21 68 21 45 27 76 29 141 1 45 -2 85 -6 88 -5 3 -9 16 -9 29 0 32 -30 108 -47
118 -7 4 -13 12 -13 17 0 39 -234 180 -299 180 -5 0 -43 16 -84 35 -41 19
-110 44 -152 54 -42 11 -79 21 -81 24 -2 2 15 10 38 17 24 7 57 18 73 25 48
21 77 32 130 51 28 9 76 30 109 45 32 15 65 25 74 22 11 -5 13 -3 7 7 -6 10
-3 12 13 8 12 -4 20 -2 16 3 -3 5 1 9 8 9 7 0 35 11 62 25 27 13 52 22 57 20
4 -3 11 0 16 7 9 15 40 36 66 44 9 4 17 10 17 15 0 5 9 9 19 9 10 0 21 7 25
15 3 8 15 15 26 15 11 0 20 5 20 10 0 6 7 10 15 10 8 0 19 8 24 18 5 10 22 24
38 32 33 17 83 60 83 73 0 4 18 25 40 44 22 20 40 40 40 46 0 5 16 25 36 45
39 39 94 115 94 130 0 5 6 14 13 21 8 6 26 35 41 66 16 30 31 55 35 55 4 0 13
16 20 35 7 19 17 35 22 35 5 0 9 7 9 15 0 7 7 18 16 23 9 5 16 13 16 18 0 15
71 159 82 166 6 4 7 8 3 8 -5 0 5 26 22 58 16 31 33 68 36 82 4 14 13 32 20
40 7 8 38 96 69 195 50 161 151 465 220 661 39 108 44 199 17 272 -48 127
-131 182 -273 182 -96 0 -143 -12 -288 -69 -139 -56 -178 -80 -239 -147 -62
-68 -77 -96 -172 -329 -49 -119 -91 -207 -127 -260 -59 -87 -250 -287 -403
-420 -95 -84 -97 -85 -367 -204 -208 -92 -303 -128 -409 -156 -76 -21 -202
-57 -280 -81 -78 -24 -147 -44 -152 -44 -5 0 -22 13 -38 28 -30 30 -63 39
-233 62 -47 6 -112 16 -146 21 -106 16 -272 11 -342 -10 -79 -24 -148 -65
-170 -100 -47 -74 -76 -101 -112 -101 -19 0 -155 40 -303 88 l-267 88 46 44
c74 72 184 236 326 484 72 127 205 339 294 471 l163 240 266 215 265 215 226
265 c214 251 352 437 394 532 26 60 90 319 90 365 -1 21 -9 73 -19 115 -29
121 -101 197 -220 230 -123 34 -269 14 -361 -49 -25 -17 -65 -40 -88 -52 l-44
-22 6 28 c12 66 26 225 41 468 8 143 20 341 26 440 8 128 8 225 0 335 -6 85
-13 220 -16 300 -4 80 -17 219 -30 310 -13 91 -29 242 -35 335 -8 116 -19 201
-36 269 -14 55 -29 118 -34 140 -38 181 -62 229 -175 346 -40 41 -130 158
-201 260 -145 209 -193 264 -499 580 -232 239 -242 247 -462 389 -398 256
-820 466 -893 444z m2120 -8093 c52 -16 128 -39 169 -51 115 -35 116 -36 102
-155 -31 -274 -39 -569 -21 -711 10 -68 35 -156 60 -203 30 -60 17 -144 -30
-183 -23 -20 -46 -27 -107 -33 -108 -10 -328 11 -401 38 -64 24 -154 82 -193
124 l-26 29 -17 320 c-12 231 -13 337 -6 380 5 33 10 77 10 99 0 21 10 75 22
120 20 75 27 86 83 140 73 72 155 112 235 115 14 1 68 -12 120 -29z m-230
-1742 c52 -22 67 -23 300 -20 135 1 257 5 272 8 l26 5 5 -118 c5 -139 35 -307
76 -418 16 -44 43 -124 60 -178 39 -123 68 -180 118 -233 21 -22 54 -67 73
-100 19 -32 75 -100 124 -151 75 -79 85 -93 66 -93 -13 0 -39 5 -57 12 -28 10
-36 10 -49 -4 -21 -20 -11 -83 14 -97 21 -12 52 4 52 25 0 12 5 14 18 9 31
-14 57 -16 71 -6 12 8 12 13 -3 35 l-17 26 51 -31 c28 -17 48 -34 45 -37 -3
-3 -11 0 -17 6 -17 17 -38 15 -38 -3 0 -8 8 -15 17 -15 9 0 27 -10 40 -22 20
-19 27 -20 43 -10 11 7 32 12 48 12 28 0 434 -205 441 -223 9 -24 41 -45 61
-40 31 8 104 -23 176 -76 34 -25 110 -80 168 -121 58 -41 105 -78 106 -82 0
-5 6 -8 13 -8 7 0 36 -22 65 -49 28 -26 64 -56 79 -66 15 -10 75 -68 133 -129
200 -211 301 -307 375 -359 22 -16 26 -26 23 -55 -2 -36 -2 -37 32 -35 31 1
43 -8 129 -95 99 -100 120 -124 159 -180 31 -43 95 -168 117 -229 10 -26 22
-52 27 -57 4 -6 8 -19 8 -31 0 -12 4 -25 8 -30 5 -6 14 -30 21 -55 8 -25 16
-52 19 -60 2 -8 6 -22 7 -30 2 -8 11 -42 20 -75 10 -33 21 -78 26 -100 4 -22
19 -87 34 -145 14 -58 27 -114 29 -125 1 -11 6 -27 10 -36 4 -9 6 -20 5 -25
-1 -5 0 -16 3 -24 3 -8 14 -44 24 -80 9 -36 23 -72 29 -80 7 -8 21 -33 30 -55
22 -49 63 -105 76 -105 13 0 72 -41 82 -57 4 -7 14 -13 21 -13 13 0 76 -63 76
-76 0 -4 19 -34 43 -68 61 -86 81 -133 117 -276 17 -69 36 -143 42 -165 7 -22
11 -43 10 -47 -1 -5 2 -8 8 -8 6 0 9 -3 8 -7 -3 -10 59 -201 73 -225 5 -10 9
-27 9 -37 0 -11 4 -22 9 -25 5 -3 11 -18 14 -33 3 -16 22 -73 42 -128 20 -55
42 -118 50 -140 7 -22 23 -62 35 -90 12 -28 23 -79 26 -115 2 -36 8 -112 14
-169 10 -101 8 -134 -7 -95 -4 10 -27 50 -52 88 -25 38 -57 87 -70 110 -13 22
-35 59 -50 81 -14 22 -32 54 -40 70 -32 72 -40 91 -47 115 -3 14 -14 43 -24
65 -9 22 -24 58 -33 80 -57 149 -77 205 -77 215 0 16 -80 164 -91 168 -5 2 -9
10 -9 18 0 8 -4 14 -10 14 -5 0 -10 5 -10 11 0 13 -131 207 -187 276 -24 29
-43 57 -43 63 0 5 -39 49 -87 97 -112 114 -144 157 -173 229 -12 32 -29 75
-37 94 -31 72 -36 86 -43 105 -3 11 -16 40 -28 65 -19 41 -21 65 -24 280 -4
254 -2 244 -67 355 -16 28 -39 68 -50 90 -12 22 -30 54 -41 70 -11 17 -24 39
-30 50 -6 11 -19 34 -30 50 -11 17 -23 37 -27 45 -3 8 -15 27 -25 43 l-19 27
24 0 c27 0 41 22 32 49 -3 10 -26 27 -53 40 -95 46 -168 97 -228 158 -34 35
-63 63 -66 63 -2 0 -35 30 -74 68 -65 62 -171 158 -254 229 -19 16 -55 43 -80
61 -25 17 -57 42 -72 56 -15 14 -30 26 -33 26 -4 0 -12 6 -19 13 -35 34 -90
70 -176 114 -19 10 -49 28 -67 41 -17 12 -36 22 -43 22 -6 0 -26 10 -43 23
-18 13 -54 34 -82 48 -27 13 -52 27 -53 32 -2 4 -8 5 -13 1 -5 -3 -9 -1 -9 3
0 5 -17 15 -37 23 -21 7 -58 28 -82 47 -24 18 -50 33 -57 33 -8 0 -14 4 -14 9
0 4 -28 25 -62 45 -35 21 -70 42 -78 47 -8 5 -26 14 -40 19 -14 6 -29 17 -35
23 -5 7 -37 28 -70 47 -33 19 -81 49 -107 67 -26 18 -52 33 -56 33 -5 0 -31
28 -58 63 -27 34 -62 76 -79 93 -16 17 -52 57 -80 89 -85 99 -188 210 -232
249 -24 21 -43 44 -43 50 0 6 -29 40 -65 74 -36 34 -65 69 -65 77 0 8 -4 15
-10 15 -5 0 -10 7 -10 15 0 8 -4 15 -9 15 -5 0 -13 10 -16 23 -4 12 -18 36
-31 54 -13 17 -24 34 -24 37 0 3 -72 119 -161 258 -89 139 -170 270 -180 290
-17 32 -89 223 -89 234 0 6 1 6 60 -18z m1338 -755 c7 -7 18 -13 25 -13 6 0
20 -9 31 -19 20 -19 70 -50 111 -71 46 -23 138 -97 146 -117 6 -17 3 -25 -16
-37 -30 -20 -76 -6 -100 30 -8 13 -25 24 -37 24 -26 0 -88 38 -88 54 0 7 5 17
11 23 14 14 3 49 -16 57 -8 3 -21 -1 -28 -9 -8 -7 -18 -10 -24 -7 -10 7 -73
108 -73 118 0 6 40 -17 58 -33z m483 -308 c27 -13 49 -22 49 -18 0 3 11 -2 25
-11 13 -9 31 -16 39 -16 8 0 22 -7 30 -16 9 -8 20 -12 26 -9 5 3 10 1 10 -4 0
-6 6 -11 13 -11 8 0 36 -11 63 -25 27 -14 65 -30 84 -36 19 -7 54 -22 78 -35
23 -13 42 -21 42 -19 0 3 11 -2 25 -11 14 -9 34 -14 45 -11 22 6 49 -18 28
-25 -15 -6 181 -29 535 -64 37 -3 67 -10 67 -15 0 -5 19 -9 43 -9 27 0 63 -10
93 -25 27 -14 55 -25 62 -25 7 0 38 -13 69 -30 31 -16 62 -30 69 -30 8 0 14
-4 14 -10 0 -5 3 -9 8 -8 4 1 29 -8 56 -20 27 -12 52 -22 57 -22 5 0 9 -4 9
-10 0 -5 8 -10 19 -10 10 0 34 -11 54 -24 19 -13 46 -27 58 -31 13 -4 35 -15
49 -25 14 -9 40 -22 58 -29 17 -8 32 -17 32 -22 0 -5 6 -9 13 -9 7 0 24 -13
37 -30 14 -16 31 -29 38 -30 6 0 12 -6 13 -12 0 -7 32 -40 69 -73 38 -33 69
-63 69 -67 1 -9 76 -88 84 -88 3 0 27 -20 54 -45 26 -25 55 -48 65 -51 10 -3
18 -10 18 -15 0 -5 6 -9 13 -9 7 0 22 -8 33 -17 11 -10 29 -23 41 -30 21 -12
195 -47 286 -58 26 -4 45 -10 42 -14 -2 -5 6 -6 19 -4 13 3 30 -2 39 -11 8 -9
22 -16 30 -16 8 0 17 -7 21 -15 3 -8 14 -15 25 -15 11 0 23 -4 26 -10 3 -5 15
-10 25 -10 21 0 80 -31 80 -42 0 -5 7 -8 15 -8 8 0 15 -4 15 -10 0 -5 7 -10
15 -10 8 0 15 -4 15 -10 0 -5 7 -10 15 -10 8 0 15 -4 15 -8 0 -5 12 -15 28
-23 51 -26 202 -131 202 -141 0 -5 5 -6 11 -3 6 4 13 -2 16 -14 3 -12 8 -21
12 -21 4 0 20 -29 36 -65 16 -36 33 -65 37 -65 5 0 6 -4 3 -10 -3 -5 -2 -10 3
-10 5 0 15 -21 21 -47 7 -27 18 -61 26 -78 21 -47 74 -228 74 -250 0 -11 5
-110 10 -220 7 -130 8 -225 2 -270 -6 -38 -13 -106 -16 -149 -3 -44 -10 -85
-15 -91 -5 -7 -7 -14 -4 -17 3 -3 -2 -36 -11 -72 -8 -37 -15 -86 -16 -109 -1
-40 -1 -41 -9 -12 -5 17 -14 57 -20 90 -7 33 -15 67 -20 75 -4 9 -11 31 -15
50 -3 19 -15 60 -25 90 -35 110 -50 163 -50 181 0 11 -4 27 -10 37 -11 18 -60
194 -64 227 -1 11 -10 35 -20 53 -9 18 -14 37 -11 42 3 6 2 10 -4 10 -5 0 -21
33 -36 73 -15 39 -40 100 -56 133 -16 34 -29 67 -29 73 0 6 -11 32 -25 58 -13
27 -33 68 -45 93 -15 33 -30 50 -58 62 -21 10 -47 26 -58 36 -11 11 -43 35
-71 55 -28 19 -62 46 -75 59 -14 13 -54 48 -89 78 -34 30 -74 67 -88 81 -26
26 -68 53 -86 55 -5 1 -22 2 -37 3 -15 0 -35 9 -45 20 -10 10 -36 21 -58 24
-39 5 -75 17 -105 36 -8 6 -32 13 -52 16 -21 3 -43 12 -50 19 -8 7 -31 16 -53
20 -22 4 -58 16 -80 26 -22 9 -64 23 -92 31 -29 7 -53 16 -53 20 0 7 -36 21
-60 23 -22 1 -80 30 -80 38 0 5 -6 8 -13 8 -7 0 -35 14 -63 32 -27 17 -54 33
-60 34 -19 3 -104 55 -104 64 0 10 -265 232 -306 256 -17 11 -56 35 -85 55
-30 21 -70 46 -89 56 -19 11 -51 29 -70 41 -19 11 -39 21 -44 21 -5 -1 -12 3
-15 8 -3 5 -35 24 -71 42 -36 18 -83 42 -105 53 -83 43 -97 48 -131 48 -19 0
-34 5 -34 10 0 6 -18 10 -39 10 -22 0 -42 4 -45 9 -5 8 -50 21 -91 27 -62 8
-105 20 -142 41 -23 12 -46 23 -51 23 -5 0 -44 20 -88 45 -43 25 -84 45 -92
45 -7 0 -18 5 -25 10 -33 29 -126 82 -159 91 -47 12 -48 25 -5 43 43 19 42 19
98 -9z"/>
<path d="M30200 13544 c0 -6 -11 -14 -23 -18 -15 -3 -23 -12 -22 -24 2 -37 27
-80 52 -91 14 -7 23 -17 20 -25 -10 -26 70 -47 103 -27 21 14 18 80 -4 97 -11
7 -23 11 -28 8 -11 -7 -27 37 -20 55 3 9 1 12 -6 7 -7 -4 -12 -3 -12 3 0 6 -7
8 -15 5 -9 -4 -15 0 -15 8 0 8 -7 15 -15 15 -8 0 -15 -6 -15 -13z"/>
<path d="M30471 14571 c-9 -6 -15 -25 -15 -46 0 -46 25 -68 72 -63 21 3 32 0
32 -9 0 -7 4 -13 10 -13 5 0 6 -7 3 -17 -4 -11 -3 -14 5 -9 7 4 12 2 12 -4 0
-7 6 -8 19 0 13 7 22 7 26 0 11 -18 31 14 30 50 0 27 -4 35 -17 34 -10 -1 -18
2 -18 7 0 5 -11 7 -25 3 -22 -5 -25 -3 -25 19 0 44 -68 74 -109 48z"/>
<path d="M16995 26103 c-100 -27 -159 -102 -171 -221 -4 -31 -10 -61 -13 -67
-8 -12 -7 -26 12 -115 7 -36 19 -75 25 -87 7 -13 10 -23 7 -23 -3 0 2 -11 11
-25 9 -14 14 -34 11 -45 -3 -11 -1 -23 4 -26 5 -3 9 -12 9 -20 0 -8 9 -33 19
-54 10 -22 24 -63 31 -92 7 -29 21 -70 31 -92 10 -21 21 -73 24 -115 3 -42 8
-91 11 -108 4 -26 1 -33 -12 -33 -14 0 -16 -8 -11 -55 4 -44 2 -59 -14 -79
-10 -13 -19 -30 -19 -38 0 -7 -11 -29 -24 -48 -30 -45 -66 -127 -58 -134 3 -3
0 -6 -6 -6 -7 0 -12 -8 -12 -18 0 -10 -3 -22 -7 -25 -3 -4 -8 -19 -9 -34 -2
-15 -8 -29 -14 -31 -5 -2 -10 -15 -10 -28 0 -13 -4 -24 -9 -24 -5 0 -14 -21
-20 -47 -7 -25 -19 -55 -27 -67 -7 -11 -14 -28 -14 -37 0 -10 -14 -44 -31 -77
-17 -33 -32 -67 -33 -75 -3 -20 -38 -88 -53 -105 -7 -7 -13 -18 -13 -24 0 -5
-6 -24 -14 -41 -20 -45 -40 -108 -41 -132 0 -18 -24 -90 -46 -140 -5 -11 -18
-45 -29 -75 -12 -30 -28 -65 -36 -77 -8 -12 -16 -33 -18 -45 -3 -13 -5 -23 -6
-23 0 0 -2 -27 -5 -60 -2 -33 -8 -61 -14 -63 -5 -2 -7 -10 -5 -17 6 -14 -49
-248 -69 -295 -12 -30 -12 -28 -21 -62 -5 -16 -12 -28 -17 -28 -5 0 -9 -9 -9
-20 0 -33 -18 -22 -30 18 -5 20 -24 93 -41 162 -28 116 -47 172 -70 210 -4 8
-16 30 -25 48 -26 52 -55 66 -122 58 -72 -8 -165 -28 -172 -36 -3 -4 -15 -12
-27 -19 -13 -6 -23 -16 -23 -22 0 -5 -11 -26 -24 -47 -38 -60 -102 -266 -131
-417 -38 -206 -60 -310 -84 -400 -12 -44 -24 -102 -27 -130 -3 -27 -14 -75
-25 -105 -10 -30 -23 -86 -29 -125 -6 -38 -15 -74 -20 -80 -5 -6 -14 -42 -21
-80 -6 -39 -20 -94 -30 -124 -11 -30 -19 -65 -19 -78 0 -12 -4 -23 -9 -23 -6
0 -10 -8 -10 -17 -1 -30 -27 -146 -39 -176 -7 -16 -12 -52 -12 -82 0 -30 -4
-57 -10 -60 -5 -3 -10 -37 -10 -76 0 -39 -4 -69 -10 -69 -6 0 -10 -31 -11 -72
0 -40 -5 -109 -10 -153 -26 -213 -27 -450 -4 -775 13 -173 23 -324 24 -335 8
-168 15 -235 23 -235 5 0 8 -8 7 -17 -2 -19 6 -45 22 -76 5 -10 7 -23 3 -29
-4 -6 -3 -8 3 -5 6 4 15 -17 22 -52 6 -32 20 -77 31 -99 11 -23 20 -49 20 -59
0 -10 9 -43 20 -72 11 -30 17 -58 13 -64 -3 -6 -1 -7 4 -4 13 8 38 -86 28
-103 -3 -5 -2 -10 4 -10 5 0 17 -35 27 -77 29 -133 60 -215 111 -300 28 -45
58 -89 67 -98 15 -15 20 -29 17 -47 0 -5 3 -8 8 -8 5 0 13 -9 16 -21 4 -12 16
-30 26 -40 11 -11 17 -24 14 -29 -4 -6 -1 -10 4 -10 6 0 11 -5 11 -11 0 -6 11
-25 24 -42 13 -18 32 -50 42 -72 10 -22 28 -54 41 -71 13 -17 23 -36 23 -42 0
-15 61 -102 72 -102 4 0 8 -7 8 -15 0 -9 7 -18 15 -21 8 -4 25 -24 37 -45 12
-21 25 -39 30 -39 4 0 8 -8 8 -17 0 -9 3 -13 7 -10 3 4 17 -11 30 -33 13 -22
27 -40 31 -40 4 0 7 -53 6 -118 0 -64 3 -124 7 -132 4 -8 16 -42 25 -75 10
-33 21 -62 24 -65 3 -3 21 -41 39 -85 19 -44 38 -89 43 -100 9 -21 17 -53 24
-95 7 -44 11 -65 16 -80 17 -47 28 -102 23 -110 -6 -10 -249 206 -274 244 -8
11 -31 39 -52 61 -50 53 -191 264 -183 276 3 5 0 9 -5 9 -6 0 -11 8 -12 18 0
22 -82 90 -117 97 -15 4 -43 10 -62 16 -19 5 -46 10 -60 12 -14 1 -30 6 -37
10 -6 4 -19 4 -28 0 -15 -5 -17 -1 -13 25 4 26 1 32 -13 32 -10 0 -29 5 -43
11 -19 9 -32 9 -56 -1 -25 -10 -30 -18 -30 -46 0 -18 5 -36 10 -39 9 -6 -10
-35 -24 -35 -2 0 -17 -13 -33 -29 -59 -59 -67 -129 -44 -416 6 -83 14 -166 16
-187 l5 -36 -53 55 c-77 81 -77 81 -77 93 0 6 -7 13 -15 16 -8 4 -15 11 -15
18 0 6 -9 17 -20 24 -11 7 -20 19 -20 27 0 8 -6 15 -14 15 -8 0 -18 9 -21 20
-3 11 -11 20 -16 20 -5 0 -9 5 -9 10 0 10 -6 17 -62 78 -38 42 -259 489 -264
534 -2 21 -13 77 -24 125 -12 47 -19 94 -17 104 3 10 -2 46 -10 80 -8 35 -12
71 -10 80 4 15 -1 77 -17 209 -4 35 -47 130 -58 130 -5 0 -17 9 -26 19 -24 27
-124 61 -181 61 -30 0 -53 5 -61 14 -6 8 -19 12 -28 9 -15 -6 -16 -5 -2 13 14
18 14 18 -2 5 -10 -7 -18 -19 -18 -26 0 -13 -30 -25 -67 -25 -13 0 -23 -4 -23
-10 0 -5 -12 -13 -26 -16 -41 -10 -94 -102 -101 -172 -2 -31 -7 -64 -11 -72
-3 -8 -11 -53 -18 -100 -7 -47 -17 -105 -23 -130 -5 -25 -10 -80 -11 -123 0
-43 -4 -76 -9 -73 -5 3 -6 -15 -3 -39 2 -25 0 -71 -6 -103 -6 -31 -12 -91 -13
-132 -2 -41 -5 -79 -7 -83 -2 -5 -3 -65 -3 -133 1 -68 -1 -129 -4 -134 -9 -14
-11 -249 -2 -243 4 2 7 1 7 -4 1 -9 28 -112 65 -238 14 -49 35 -126 46 -170
11 -44 26 -97 34 -118 8 -20 15 -51 15 -68 0 -17 5 -39 10 -50 9 -16 7 -19
-12 -19 -40 0 -192 21 -213 30 -41 17 -119 31 -209 37 -85 5 -100 3 -192 -26
-54 -18 -116 -43 -136 -57 -21 -13 -73 -38 -115 -55 -116 -46 -180 -83 -258
-149 -75 -64 -234 -148 -344 -181 -36 -11 -102 -33 -146 -49 -44 -16 -109 -34
-143 -40 -35 -6 -76 -16 -90 -21 -37 -14 -111 -28 -212 -39 -160 -18 -232 -31
-268 -50 -21 -10 -64 -31 -97 -46 -144 -66 -239 -165 -331 -347 -132 -259
-179 -312 -289 -322 -5 0 -28 -8 -49 -18 -22 -10 -51 -18 -65 -20 -14 -1 -45
-12 -69 -24 -24 -13 -52 -23 -62 -23 -10 0 -22 -4 -25 -10 -3 -5 -13 -10 -21
-10 -9 0 -22 -7 -31 -15 -8 -8 -19 -13 -24 -10 -5 4 -9 2 -9 -4 0 -5 -10 -13
-22 -17 -13 -4 -26 -12 -30 -18 -4 -6 -11 -11 -16 -11 -8 0 -84 -78 -142 -145
-16 -19 -37 -50 -45 -67 -9 -18 -20 -33 -26 -33 -6 0 -7 -5 -4 -10 3 -6 -1
-13 -9 -16 -9 -3 -16 -10 -16 -15 0 -5 -25 -43 -56 -84 -39 -51 -82 -93 -137
-133 -44 -31 -103 -74 -131 -94 -28 -20 -71 -49 -96 -63 -89 -51 -166 -94
-195 -109 -16 -9 -52 -29 -80 -44 -157 -91 -353 -176 -580 -250 -106 -35 -339
-124 -410 -157 -27 -13 -70 -32 -95 -44 -105 -48 -239 -134 -300 -193 -38 -36
-126 -134 -235 -263 -99 -116 -147 -167 -359 -385 -104 -107 -229 -244 -279
-305 -111 -136 -181 -218 -229 -267 -21 -20 -38 -42 -38 -48 0 -5 -7 -10 -15
-10 -8 0 -15 -4 -15 -8 0 -4 -25 -33 -55 -62 -30 -30 -55 -59 -55 -64 0 -5
-18 -27 -40 -48 -22 -22 -65 -70 -95 -106 -30 -37 -60 -74 -67 -82 -46 -55
-162 -221 -182 -260 -4 -8 -18 -33 -31 -55 -13 -22 -33 -59 -43 -81 -11 -23
-40 -73 -65 -111 -25 -39 -62 -102 -82 -141 -21 -39 -43 -77 -51 -83 -8 -6
-14 -19 -14 -29 0 -9 -9 -25 -20 -35 -11 -10 -17 -22 -14 -26 3 -5 1 -9 -3 -9
-8 0 -17 -15 -47 -77 -9 -18 -22 -36 -29 -40 -26 -16 -86 -101 -127 -178 -23
-44 -48 -87 -56 -96 -8 -8 -14 -21 -14 -28 0 -6 -18 -36 -40 -65 -22 -29 -40
-56 -40 -60 0 -5 -11 -22 -25 -38 -14 -17 -35 -48 -46 -70 -11 -21 -29 -48
-40 -59 -11 -11 -24 -30 -29 -42 -6 -12 -14 -29 -19 -37 -12 -18 -23 -48 -28
-74 -2 -10 -12 -35 -23 -55 -10 -20 -40 -90 -66 -156 -26 -66 -51 -121 -55
-123 -5 -2 -9 -12 -9 -22 0 -9 -7 -23 -15 -30 -8 -6 -17 -22 -21 -33 -3 -12
-16 -35 -28 -52 -13 -16 -40 -61 -61 -100 -21 -38 -47 -83 -59 -100 -19 -27
-37 -58 -72 -124 -13 -25 -123 -131 -136 -131 -4 0 -26 -26 -49 -58 -23 -31
-60 -75 -81 -96 -21 -22 -38 -43 -38 -47 0 -3 -16 -26 -35 -50 -19 -24 -35
-49 -35 -55 0 -6 -9 -23 -21 -38 -17 -22 -20 -39 -19 -104 0 -42 2 -89 4 -103
5 -32 43 -109 55 -109 5 0 17 -8 27 -17 9 -9 55 -27 101 -39 86 -22 113 -22
260 1 38 6 158 62 174 81 6 8 18 14 26 14 7 0 16 6 19 14 3 8 19 18 35 21 16
4 32 12 36 20 8 13 102 60 115 57 3 -1 12 5 18 13 7 8 21 15 31 15 11 0 19 5
19 11 0 5 4 8 9 5 5 -4 11 -1 13 4 2 6 19 12 39 14 20 2 40 5 45 9 11 6 116
27 160 32 17 2 40 8 50 13 27 15 164 46 171 38 3 -3 12 -1 19 5 8 6 21 8 30 5
9 -4 22 -2 28 4 7 5 37 12 67 14 30 3 93 16 141 29 48 14 89 23 91 20 2 -2 17
3 33 12 16 8 39 15 51 15 12 0 25 5 28 10 3 6 13 10 21 10 8 0 31 10 52 23 20
13 60 29 87 37 28 7 65 21 83 32 19 10 41 20 50 21 10 2 45 18 80 35 34 18 68
30 74 26 6 -4 8 -3 5 2 -3 5 25 20 61 33 37 13 72 27 77 32 6 4 47 23 90 42
44 19 102 48 129 66 28 17 56 31 63 31 7 0 30 10 51 23 44 28 119 66 257 132
55 26 107 52 115 56 15 9 40 21 130 61 25 11 56 25 70 32 14 6 27 14 30 17 3
3 23 12 45 21 22 9 74 32 115 51 129 60 169 77 178 77 18 0 147 72 182 102 11
10 24 18 28 18 4 0 19 11 34 25 15 14 30 25 34 25 3 0 28 18 54 40 26 22 51
40 55 40 3 0 22 12 42 27 34 26 77 51 153 90 76 38 129 81 247 202 68 69 123
126 123 127 0 1 32 34 70 73 39 39 70 76 70 81 0 5 18 19 40 30 23 12 43 27
47 35 3 8 10 15 15 15 10 0 79 51 110 83 10 9 23 17 29 17 5 0 7 5 4 10 -3 6
0 10 8 10 7 0 35 21 60 46 26 25 47 41 47 34 0 -7 -16 -27 -35 -44 -19 -18
-35 -39 -35 -47 0 -21 -134 -194 -267 -346 -196 -223 -230 -291 -224 -445 2
-45 27 -61 91 -56 46 3 71 13 124 46 37 23 70 42 74 42 4 0 2 -4 -3 -8 -12 -8
-92 -116 -117 -158 -10 -16 -33 -53 -52 -83 -19 -30 -38 -73 -42 -95 -3 -23
-12 -52 -19 -66 -7 -14 -16 -48 -20 -75 -4 -28 -18 -73 -32 -102 -13 -28 -28
-78 -34 -110 -6 -32 -15 -71 -20 -88 -6 -16 -13 -60 -16 -97 -7 -84 2 -98 60
-91 50 6 114 33 257 109 14 7 38 25 54 39 16 14 33 25 37 25 5 0 -37 -64 -92
-141 -109 -154 -204 -331 -240 -449 -13 -41 -28 -80 -35 -85 -27 -24 -169
-253 -179 -290 -7 -22 -15 -49 -19 -60 -29 -76 -36 -120 -40 -245 -3 -127 16
-199 67 -254 41 -45 43 -45 114 -48 66 -2 74 0 103 25 17 15 35 25 40 22 6 -3
10 -1 10 6 0 7 3 9 6 6 4 -4 32 6 63 22 31 16 66 31 78 34 20 5 22 2 17 -21
-4 -15 -10 -31 -14 -37 -4 -5 -15 -41 -25 -79 -9 -38 -21 -81 -27 -95 -6 -14
-12 -41 -15 -60 -2 -19 -10 -49 -18 -65 -31 -68 -46 -148 -56 -286 -5 -80 -14
-172 -20 -205 -12 -71 -12 -168 1 -210 12 -37 31 -195 26 -204 -3 -4 4 -46 14
-94 10 -47 20 -112 21 -144 1 -32 5 -62 9 -68 4 -5 11 -28 15 -50 11 -63 61
-159 110 -212 25 -26 48 -48 53 -48 4 -1 17 -4 30 -9 21 -7 22 -13 22 -104 0
-100 11 -161 81 -467 5 -22 12 -56 15 -75 3 -19 8 -42 12 -50 3 -8 7 -19 7
-25 1 -5 4 -17 8 -25 18 -49 26 -83 21 -92 -3 -5 -1 -14 4 -21 6 -7 13 -30 17
-52 17 -108 32 -151 96 -280 78 -160 137 -239 224 -302 93 -67 105 -71 186
-73 104 -1 120 3 182 49 29 23 58 41 62 41 5 0 25 11 44 23 20 13 63 41 96 62
33 22 73 51 88 64 24 22 29 23 37 11 5 -8 10 -23 10 -33 0 -30 29 -90 59 -122
24 -26 72 -107 219 -375 65 -118 217 -304 282 -345 45 -28 132 -45 175 -33 17
4 48 7 71 6 22 -1 45 1 51 5 6 4 16 0 23 -8 22 -26 46 -16 96 40 120 135 177
194 184 190 4 -3 20 -44 35 -92 40 -130 91 -239 123 -263 4 -3 29 -39 56 -80
68 -103 165 -197 211 -206 20 -3 117 -5 216 -2 98 2 179 1 179 -2 0 -3 16 -14
35 -24 19 -11 35 -22 35 -27 0 -4 16 -31 36 -60 20 -30 49 -81 64 -114 15 -33
34 -66 43 -74 10 -7 17 -22 17 -32 0 -11 3 -19 8 -19 4 0 27 -31 51 -70 23
-38 46 -70 51 -70 4 0 17 -15 28 -33 11 -17 32 -49 47 -69 15 -20 29 -51 31
-67 3 -29 34 -71 52 -71 5 0 17 -9 27 -20 28 -31 110 -80 133 -80 12 0 22 -4
22 -10 0 -5 18 -10 41 -10 28 0 38 -4 33 -12 -5 -8 17 -9 87 -3 52 4 100 7
107 8 6 0 12 4 12 9 0 4 3 7 8 6 16 -5 69 36 94 74 l26 40 43 -58 c24 -33 46
-61 49 -64 9 -9 40 -59 40 -65 0 -4 -4 -3 -10 0 -17 10 -11 -15 10 -45 11 -15
24 -38 30 -51 9 -21 9 -20 4 8 -7 43 3 42 22 -2 8 -19 19 -35 24 -35 6 0 10
-9 10 -20 0 -11 4 -28 9 -38 19 -34 41 -90 41 -101 0 -6 4 -19 10 -29 19 -35
50 -111 50 -125 0 -16 41 -138 60 -179 21 -45 106 -60 208 -37 l49 12 59 121
c32 66 68 137 79 156 12 19 34 68 50 108 16 40 32 75 37 78 4 3 8 14 8 24 0
31 19 33 26 3 4 -15 10 -30 14 -33 16 -13 61 -103 57 -114 -3 -8 1 -26 10 -42
27 -52 82 -217 76 -227 -3 -6 -1 -7 5 -3 7 4 12 0 12 -10 0 -17 34 -143 49
-179 4 -11 18 -41 30 -68 11 -26 21 -54 21 -61 0 -7 6 -19 14 -25 8 -7 22 -37
32 -67 20 -64 58 -115 132 -179 49 -41 58 -45 106 -45 29 0 58 -6 65 -12 10
-11 11 -10 6 3 -4 10 0 19 9 22 8 3 23 21 32 39 9 18 30 45 45 61 18 17 31 44
35 68 4 22 12 46 18 52 31 34 104 197 111 247 4 30 11 60 15 65 9 13 36 124
45 188 4 26 12 47 17 47 6 0 7 8 4 17 -4 9 -2 19 3 23 6 3 15 38 21 77 13 97
24 123 52 123 34 0 114 -44 144 -79 14 -17 32 -31 40 -31 8 0 14 -4 14 -9 0
-5 17 -19 38 -32 28 -17 53 -22 106 -23 75 -1 72 -3 99 74 26 77 96 263 101
267 4 5 62 -112 99 -202 14 -33 41 -94 61 -136 20 -42 36 -79 36 -83 0 -18
136 -283 178 -347 44 -67 258 -303 307 -338 11 -8 48 -42 82 -74 111 -106 213
-133 313 -82 27 14 56 25 65 25 40 0 113 80 185 204 19 33 71 98 115 146 106
113 185 226 276 390 22 41 66 106 97 144 110 134 159 216 206 348 18 48 92
158 108 158 4 0 8 -15 8 -32 0 -43 45 -221 64 -256 8 -15 34 -65 59 -112 l44
-85 63 -3 c57 -3 65 -1 92 25 40 38 106 137 130 193 30 70 62 130 70 130 4 0
13 -8 20 -19 7 -10 29 -29 48 -42 19 -13 51 -36 71 -52 20 -15 43 -27 51 -27
8 0 30 -21 49 -46 19 -25 55 -61 82 -80 26 -19 47 -38 47 -42 0 -16 113 -93
128 -87 8 3 21 0 28 -6 21 -17 133 -13 181 6 27 11 50 30 64 51 11 19 25 34
30 34 14 0 103 154 193 337 17 35 25 42 41 37 39 -12 112 -74 161 -136 67 -85
230 -246 297 -292 45 -31 64 -38 104 -39 119 -1 167 44 243 231 28 70 53 134
55 142 40 141 45 164 45 208 0 23 5 42 10 42 6 0 10 16 10 35 0 19 4 35 9 35
5 0 12 11 15 25 4 14 11 25 16 25 6 0 10 8 10 18 0 10 18 36 39 58 53 53 61
59 117 87 93 46 107 48 218 26 55 -11 110 -24 121 -28 18 -8 73 -23 185 -51
19 -5 62 -17 95 -26 62 -18 153 -20 169 -4 5 5 10 67 11 137 1 70 5 135 9 144
8 18 67 18 147 0 24 -6 75 -11 113 -11 l70 0 43 46 c23 26 55 72 69 103 15 31
51 98 82 150 54 93 82 123 294 320 63 58 87 61 107 12 7 -15 40 -52 73 -81 59
-52 60 -55 37 -60 -20 -6 2 -20 131 -85 85 -42 167 -86 182 -97 16 -11 33 -16
39 -12 7 4 1 12 -17 20 -27 11 -26 12 21 7 55 -5 105 9 105 31 0 7 7 19 15 26
8 7 13 16 10 20 -13 21 217 518 270 585 18 22 52 72 77 110 68 106 345 649
362 708 8 29 40 126 70 215 31 90 56 171 56 180 0 10 8 46 18 82 l19 65 17
-34 c19 -35 19 -40 -8 -164 -9 -43 -16 -99 -14 -125 l3 -47 53 -1 c52 -2 54
-1 115 60 140 139 229 267 257 371 39 148 58 228 66 295 3 25 8 56 10 70 9 48
11 367 3 426 -4 32 -10 88 -13 124 -6 81 -24 216 -36 282 -14 72 -11 90 7 41
8 -24 20 -44 26 -44 50 -6 64 -6 79 0 21 7 59 79 78 144 8 26 18 47 23 47 5 0
7 5 5 12 -3 7 1 36 8 65 19 80 9 459 -15 600 -5 32 -13 110 -16 173 -4 63 -13
138 -21 166 -19 66 -111 253 -174 353 -28 43 -61 109 -74 147 -13 38 -31 86
-40 107 -20 45 -15 56 23 55 15 -1 33 2 40 6 27 17 43 73 49 168 5 93 -1 134
-28 203 -27 68 -43 112 -44 125 -2 8 -10 32 -19 52 -9 21 -17 47 -17 58 0 11
-5 20 -11 20 -6 0 -8 9 -4 20 3 11 2 20 -2 20 -5 0 -15 24 -22 53 -7 28 -16
61 -21 72 -5 11 -16 47 -25 80 -19 72 -19 72 -35 110 -7 17 -13 45 -14 62 0
18 -4 33 -8 33 -5 0 -8 8 -8 19 0 10 -11 53 -25 95 -14 42 -25 83 -25 91 0 8
-4 15 -9 15 -5 0 -12 11 -15 25 -4 14 -32 60 -64 102 -121 162 -178 256 -185
306 -4 27 -22 83 -41 125 -18 42 -41 102 -49 132 -16 53 -93 215 -196 410 -28
52 -55 106 -60 120 -5 14 -12 34 -16 45 -4 11 41 -52 100 -140 59 -88 120
-176 134 -195 15 -19 53 -78 86 -130 71 -116 96 -145 107 -128 5 9 8 8 8 -4 0
-10 7 -18 15 -18 8 0 15 -5 15 -10 0 -14 64 -109 92 -137 12 -13 19 -23 15
-23 -4 0 14 -20 40 -45 25 -25 50 -45 55 -45 4 0 17 -8 27 -17 33 -30 50 -43
56 -43 3 0 18 -11 33 -25 15 -14 32 -25 39 -25 7 0 13 -5 13 -10 0 -6 11 -15
25 -20 14 -5 25 -14 25 -20 0 -5 5 -10 10 -10 6 0 21 -9 33 -20 12 -11 46 -37
77 -58 30 -20 61 -43 68 -49 7 -7 28 -20 46 -28 18 -9 43 -25 54 -35 12 -11
25 -20 29 -20 4 0 30 -20 58 -45 27 -25 55 -45 60 -45 6 0 25 -13 43 -30 18
-16 35 -30 38 -30 3 0 17 -11 32 -25 15 -14 32 -25 39 -25 7 0 18 -9 25 -20 7
-11 19 -20 26 -20 7 0 15 -6 18 -13 2 -7 27 -27 54 -43 27 -16 52 -36 55 -44
3 -8 21 -26 41 -40 19 -14 58 -46 86 -73 29 -26 58 -47 65 -47 7 0 13 -6 13
-12 1 -15 51 -47 174 -112 49 -26 100 -55 113 -66 13 -10 37 -21 53 -25 16 -3
34 -13 41 -21 6 -8 18 -14 25 -14 8 0 22 -4 32 -10 9 -5 35 -17 57 -26 22 -10
42 -20 45 -23 8 -9 80 -41 91 -41 6 0 23 -8 37 -19 15 -10 45 -24 67 -31 22
-7 48 -21 58 -31 10 -11 24 -19 32 -19 7 0 43 -16 79 -35 37 -19 74 -35 84
-35 9 0 32 -9 50 -20 18 -11 42 -20 53 -20 13 0 18 -4 13 -12 -4 -7 -3 -8 5
-4 12 8 76 -17 86 -34 3 -5 12 -7 19 -4 7 3 19 -2 26 -11 7 -8 21 -15 31 -15
10 0 21 -4 24 -10 3 -5 13 -10 21 -10 8 0 37 -11 66 -25 28 -14 58 -25 65 -25
7 0 13 -5 13 -11 0 -6 6 -9 13 -6 6 2 32 -10 57 -28 25 -18 64 -42 87 -53 22
-12 43 -25 45 -29 1 -5 21 -17 43 -28 22 -11 54 -29 70 -40 49 -33 68 -44 110
-65 22 -11 67 -36 100 -55 69 -40 145 -81 225 -120 30 -15 57 -31 60 -35 3 -4
22 -13 43 -21 21 -7 46 -20 55 -29 9 -8 22 -15 27 -16 17 -1 103 -44 107 -53
6 -17 265 -151 293 -151 8 0 18 -6 22 -13 4 -6 13 -12 18 -13 6 0 32 -11 60
-23 27 -13 65 -25 85 -28 19 -2 55 -6 80 -10 78 -10 126 -6 205 21 97 33 125
53 154 111 20 41 22 57 19 143 -2 53 -10 111 -18 127 -7 17 -14 36 -16 42 -1
7 -12 24 -23 39 -12 15 -21 32 -21 39 0 7 -20 42 -44 79 -52 77 -56 84 -117
207 -41 84 -56 121 -65 169 -2 8 -8 26 -15 40 -6 14 -15 34 -19 45 -4 11 -18
43 -30 70 -12 28 -27 61 -33 75 -5 14 -19 43 -30 65 -12 22 -28 53 -36 70 -9
16 -18 32 -21 35 -3 3 -11 16 -18 30 -7 14 -21 39 -32 55 -11 17 -28 46 -37
65 -10 19 -21 37 -26 38 -4 2 -5 7 -2 12 3 4 -2 13 -10 20 -8 7 -15 18 -15 25
0 6 -9 22 -20 35 -11 13 -23 35 -27 49 -3 14 -14 37 -23 51 -9 14 -20 38 -24
55 -4 16 -12 33 -18 36 -6 4 -12 16 -13 26 0 10 -5 25 -10 33 -5 8 -127 290
-271 625 -395 921 -567 1274 -676 1390 -16 17 -31 40 -34 52 -3 12 -12 24 -20
27 -8 3 -14 12 -14 19 0 8 -9 22 -20 32 -11 10 -20 23 -20 30 0 6 -13 25 -30
41 -16 16 -30 33 -30 38 0 5 -26 35 -57 66 -131 133 -163 166 -163 173 0 8
-36 51 -97 115 -24 25 -43 47 -43 49 0 2 -26 31 -57 63 -32 33 -69 73 -83 90
-13 16 -27 30 -31 30 -9 0 -36 23 -125 108 -80 74 -123 112 -129 112 -3 0 -18
13 -33 30 -16 16 -33 30 -38 30 -5 0 -22 13 -37 29 -15 17 -36 33 -47 36 -11
4 -20 12 -20 18 -1 11 -109 96 -204 160 -22 15 -42 32 -44 37 -2 6 -9 10 -15
10 -7 0 -23 12 -36 25 -13 14 -28 25 -34 25 -5 0 -30 17 -55 38 -25 20 -51 39
-58 42 -12 5 -59 42 -132 107 -20 18 -43 33 -49 33 -7 0 -13 6 -13 14 0 8 -4
16 -9 18 -11 4 -75 54 -108 86 -13 12 -27 22 -31 22 -6 0 -31 21 -114 95 -10
8 -22 15 -28 15 -5 0 -15 9 -22 20 -7 11 -18 20 -25 20 -7 0 -18 9 -25 20 -7
11 -17 20 -21 20 -5 0 -23 15 -40 33 -18 17 -50 46 -72 63 -42 33 -103 86
-163 141 -20 18 -39 33 -44 33 -4 0 -26 26 -49 58 -24 31 -48 61 -56 65 -7 4
-13 13 -13 20 0 7 -13 26 -28 42 -15 17 -36 44 -46 60 -11 17 -25 34 -33 38
-7 4 -13 13 -13 18 0 6 -20 38 -45 72 -105 144 -141 194 -163 227 -14 19 -31
39 -38 43 -8 4 -14 12 -14 17 0 6 -8 18 -17 29 -10 10 -26 29 -36 42 -138 182
-314 379 -341 379 -5 0 -17 6 -25 14 -22 20 -96 62 -161 92 -30 14 -64 30 -74
36 -35 19 -192 71 -248 83 -21 4 -38 11 -38 16 0 5 -7 6 -15 3 -8 -4 -21 -1
-29 5 -7 6 -15 8 -19 5 -3 -3 -23 0 -44 7 -21 7 -74 11 -118 11 l-80 -2 -95
58 c-120 72 -176 112 -261 184 -37 32 -107 87 -156 123 -48 35 -93 68 -98 72
-49 38 -85 63 -90 63 -8 0 -102 67 -124 88 -11 11 -34 13 -88 10 -62 -4 -75
-2 -89 14 -14 15 -32 18 -98 18 -45 0 -108 -7 -139 -15 -32 -8 -86 -15 -120
-15 -34 0 -114 -5 -178 -10 -119 -11 -259 -2 -349 20 -126 33 -170 44 -220 58
-228 62 -424 186 -513 325 -49 74 -263 295 -311 319 -22 11 -52 28 -66 38 -84
57 -112 72 -165 89 -99 31 -106 32 -354 20 l-239 -10 -98 41 c-55 22 -106 44
-114 49 -9 5 -35 12 -58 16 -23 4 -54 9 -70 12 -57 12 -307 10 -375 -3 -66
-13 -331 -98 -352 -113 -5 -4 -30 -13 -55 -20 -45 -13 -231 -104 -328 -161
l-53 -31 5 43 c3 24 11 128 16 231 8 137 15 195 26 211 8 13 17 33 19 45 2 12
13 33 24 48 12 14 21 32 21 39 0 7 11 39 24 71 38 91 38 93 43 183 3 53 10 88
17 92 12 7 95 108 217 263 123 156 229 332 229 380 0 11 18 47 40 80 77 115
190 426 320 882 193 673 190 657 197 1230 8 601 -9 831 -66 941 -29 55 -74
201 -67 218 3 8 2 13 -3 10 -8 -5 -46 111 -46 139 0 6 -6 16 -12 23 -7 7 -13
24 -13 38 0 13 -3 24 -7 24 -13 0 -43 60 -43 86 0 13 -5 24 -12 24 -6 0 -9 3
-5 6 3 4 0 13 -8 21 -8 8 -15 23 -15 33 0 10 -4 22 -10 25 -5 3 -10 13 -10 22
0 8 -14 44 -31 80 -17 35 -28 67 -25 70 3 3 -1 12 -9 20 -8 8 -15 23 -15 32 0
18 -16 63 -46 128 -8 17 -17 46 -20 65 -4 18 -13 41 -22 50 -8 10 -12 26 -9
37 3 11 0 22 -5 23 -5 2 -14 21 -18 43 -4 22 -18 78 -30 125 -11 47 -28 113
-36 147 -9 34 -13 67 -9 74 4 6 3 14 -2 18 -10 6 -76 355 -77 408 -1 17 -4 29
-8 26 -5 -2 -8 5 -8 15 0 41 -52 199 -80 243 -41 63 -99 99 -159 99 l-47 0
-33 -63 c-18 -34 -43 -91 -56 -127 -70 -194 -80 -214 -73 -143 2 24 0 44 -5
46 -4 1 -10 54 -12 117 -3 63 -7 135 -10 160 -36 329 -44 375 -77 449 -11 24
-20 52 -21 62 -1 11 -5 19 -10 19 -4 0 -5 5 -2 11 4 6 -1 16 -11 23 -10 8 -15
20 -11 30 4 9 3 16 -1 16 -9 0 -23 35 -47 110 -9 30 -30 83 -46 117 -16 34
-29 69 -29 78 0 8 -13 43 -29 77 -17 34 -27 66 -24 71 3 4 -2 16 -10 25 -9 9
-19 31 -23 47 -3 17 -13 37 -21 47 -8 9 -15 23 -17 31 -1 8 -14 31 -29 50 -15
20 -27 38 -27 41 0 3 -11 17 -25 32 -14 15 -25 33 -25 40 0 8 -4 14 -10 14 -5
0 -10 5 -10 11 0 11 -44 71 -82 113 -10 11 -18 25 -18 31 0 7 -18 31 -40 55
-22 24 -40 48 -40 54 0 7 -8 19 -17 28 -28 25 -53 61 -53 76 0 7 -4 10 -10 7
-5 -3 -10 0 -10 7 0 17 -55 95 -87 123 -13 11 -23 28 -23 38 0 9 -4 17 -8 17
-5 0 -14 11 -20 24 -10 22 -21 36 -89 112 -13 14 -23 28 -23 32 -1 15 -92 78
-129 89 -72 21 -162 24 -226 6z m2140 -5418 c-17 -291 -34 -476 -46 -497 -5
-10 -9 -45 -9 -77 0 -33 -4 -63 -10 -66 -5 -3 -10 -38 -10 -76 0 -41 -4 -68
-9 -64 -6 3 -10 -3 -10 -12 0 -43 -35 -212 -43 -207 -5 3 -6 -6 -2 -20 4 -16
2 -26 -4 -26 -6 0 -11 -8 -11 -17 0 -56 -74 -383 -92 -408 -3 -5 -10 -25 -14
-44 -7 -33 -56 -159 -75 -193 -6 -10 -10 -25 -10 -33 0 -8 -16 -49 -35 -91
-19 -41 -35 -80 -35 -86 0 -5 -6 -22 -14 -36 -8 -15 -27 -56 -42 -92 -104
-255 -147 -318 -333 -501 -144 -143 -164 -166 -168 -200 -5 -34 -13 -43 -67
-78 -33 -22 -86 -50 -116 -62 -341 -133 -341 -133 -503 -127 -99 4 -146 10
-187 26 -58 21 -95 31 -145 39 -45 7 -154 42 -210 68 -27 13 -65 26 -83 30
-32 7 -33 7 -16 27 14 15 16 23 7 36 -15 24 -55 21 -68 -4 -10 -21 -12 -21
-42 -5 -56 29 -121 85 -147 127 -14 23 -26 44 -26 48 0 3 15 6 34 6 26 0 36 5
41 21 10 32 -5 134 -26 176 -10 20 -19 41 -19 46 0 5 -20 39 -44 76 -38 57
-56 94 -96 196 -11 27 -35 122 -61 235 -11 52 -32 131 -45 175 -12 44 -28 103
-35 130 -7 28 -15 52 -19 55 -7 5 -37 143 -50 225 -24 155 -62 308 -94 375
-19 39 -32 78 -29 86 3 8 0 14 -7 14 -6 0 -9 4 -5 9 3 5 -6 30 -20 56 -15 25
-33 65 -41 88 -27 78 -39 96 -65 107 -28 12 -89 72 -89 88 0 6 -12 20 -26 31
-20 16 -36 19 -72 16 -26 -2 -50 -4 -54 -5 -13 0 -9 -141 6 -215 14 -70 36
-143 61 -200 7 -16 16 -41 20 -55 4 -14 13 -38 20 -55 19 -48 35 -100 35 -117
0 -9 4 -18 10 -20 5 -1 10 -21 11 -43 2 -22 15 -71 30 -108 15 -38 25 -75 22
-83 -3 -8 0 -14 7 -14 7 0 10 -7 6 -15 -3 -8 13 -61 35 -118 22 -56 46 -131
54 -166 9 -35 22 -78 30 -95 7 -17 16 -58 18 -91 2 -33 12 -77 21 -98 9 -22
13 -36 8 -33 -5 3 -38 72 -72 153 -35 82 -82 189 -106 238 -23 50 -72 162
-107 250 -64 159 -65 161 -82 325 -9 91 -28 230 -41 310 -39 221 -43 270 -43
465 1 176 1 179 16 130 8 -27 20 -55 25 -62 5 -7 24 -43 43 -80 36 -76 55 -95
170 -176 139 -98 173 -127 267 -224 119 -123 208 -226 208 -239 0 -7 4 -14 9
-16 5 -1 11 -41 13 -88 1 -47 6 -87 10 -90 4 -3 8 -45 9 -93 1 -48 5 -87 10
-87 5 0 9 -15 9 -33 0 -18 11 -122 26 -232 14 -110 23 -210 21 -223 -2 -12 -1
-25 3 -27 5 -3 6 -14 3 -24 -5 -20 31 -224 48 -276 9 -25 21 -83 32 -145 5
-30 37 -78 64 -96 22 -14 44 -17 108 -15 120 4 174 34 221 121 10 19 25 42 32
51 7 9 15 29 18 45 3 15 8 32 12 38 13 21 19 326 12 636 -6 258 -5 318 6 335
7 11 16 37 18 56 3 19 9 46 14 59 21 50 26 65 27 81 5 39 135 205 135 172 0
-7 10 -15 23 -19 12 -4 28 -15 35 -25 7 -11 18 -19 24 -19 5 0 19 -11 30 -25
35 -45 88 -124 88 -132 0 -5 20 -34 45 -65 52 -67 82 -77 184 -60 59 9 72 15
121 61 30 28 58 51 62 51 4 0 8 5 8 10 0 6 11 23 24 37 14 15 35 54 47 87 12
34 27 75 34 91 15 35 78 204 94 255 6 19 22 47 36 62 20 23 29 27 55 21 17 -3
41 -1 53 5 12 6 39 13 60 17 25 4 51 19 76 43 41 41 111 134 111 149 0 15 97
113 111 113 7 0 31 -8 53 -19 84 -38 87 -39 173 -45 75 -6 130 18 172 74 14
19 28 37 31 40 3 3 20 37 39 75 19 39 43 89 55 112 11 23 24 39 27 35 4 -4 1
-106 -6 -227z m-4746 -3171 c1 -11 10 -29 21 -39 11 -10 20 -23 20 -28 0 -6
29 -54 65 -107 36 -53 65 -100 65 -104 0 -7 109 -149 144 -188 9 -10 16 -22
16 -26 0 -4 17 -23 38 -42 20 -20 46 -49 56 -65 10 -17 43 -53 72 -82 30 -29
54 -55 54 -58 0 -11 67 -75 79 -75 6 0 11 -5 11 -11 0 -11 51 -69 60 -69 7 0
105 -89 196 -177 41 -40 78 -73 83 -73 4 0 17 -11 27 -25 10 -14 24 -23 31
-21 6 3 19 -6 27 -20 9 -13 23 -24 31 -24 8 0 15 -7 15 -15 0 -9 8 -19 18 -22
9 -4 23 -15 30 -25 7 -10 19 -18 27 -18 7 0 34 -21 59 -46 43 -43 95 -69 206
-104 14 -4 46 -19 72 -33 27 -14 74 -28 110 -32 77 -9 83 -12 83 -50 0 -21 7
-33 26 -44 24 -13 29 -13 53 2 30 20 35 57 10 78 -9 8 -14 22 -11 37 8 41 -12
78 -55 107 -68 45 -135 123 -190 219 -28 50 -65 111 -81 135 -47 69 -79 181
-85 296 l-5 100 57 -59 c31 -33 56 -61 56 -63 0 -9 59 -63 69 -63 5 0 13 -9
16 -20 3 -11 13 -20 21 -20 8 0 14 -6 14 -12 0 -16 58 -72 83 -81 9 -4 17 -13
17 -22 0 -8 6 -15 13 -15 7 0 18 -9 25 -20 7 -11 19 -20 27 -20 8 0 15 -4 15
-8 0 -13 139 -122 155 -122 8 0 15 -7 15 -15 0 -9 11 -20 25 -25 13 -5 30 -18
37 -30 7 -11 20 -20 28 -20 8 0 21 -9 28 -20 7 -11 21 -20 32 -20 11 0 40 -20
64 -45 25 -25 52 -45 60 -45 8 0 20 -8 25 -19 6 -10 24 -24 40 -31 16 -6 32
-18 35 -26 3 -8 16 -14 30 -14 16 0 27 -7 31 -20 4 -13 19 -23 36 -27 16 -3
34 -14 40 -24 5 -11 20 -19 33 -19 12 0 33 -11 46 -25 13 -14 28 -25 33 -25 5
0 22 -11 39 -25 16 -14 38 -25 48 -25 10 0 20 -9 23 -19 3 -11 17 -22 36 -26
17 -3 34 -12 38 -20 5 -7 25 -20 46 -28 20 -9 37 -20 37 -25 0 -5 17 -12 39
-16 27 -4 40 -12 44 -26 3 -14 14 -20 31 -20 14 0 35 -9 46 -20 13 -13 33 -20
58 -20 26 0 41 -6 49 -19 6 -10 24 -22 40 -25 15 -4 37 -16 49 -27 12 -11 39
-23 60 -26 21 -3 47 -14 57 -24 12 -13 32 -19 61 -19 31 0 48 -6 62 -21 16
-17 28 -20 89 -17 l70 3 21 60 c34 101 157 262 258 340 22 17 46 38 55 48 8 9
20 17 25 17 6 0 95 87 199 193 190 193 199 199 166 109 -16 -42 -10 -400 7
-503 9 -52 20 -99 25 -105 6 -7 12 -29 14 -50 2 -22 4 -39 5 -39 1 0 3 -13 5
-30 2 -16 9 -31 15 -33 5 -2 10 -12 10 -22 0 -29 22 -70 37 -70 7 0 18 -11 23
-25 5 -14 16 -25 24 -25 7 0 16 -9 19 -20 3 -11 14 -20 25 -20 11 0 22 -9 25
-20 3 -11 12 -20 21 -20 9 0 16 -7 16 -15 0 -8 6 -15 14 -15 7 0 25 -11 40
-25 15 -14 24 -25 20 -25 -4 0 1 -9 11 -20 10 -11 24 -20 32 -20 7 0 13 -7 13
-15 0 -8 9 -20 20 -27 11 -7 20 -18 20 -25 0 -7 6 -13 14 -13 7 0 16 -9 19
-20 3 -11 12 -20 21 -20 9 0 16 -6 16 -13 0 -7 11 -24 25 -39 14 -15 25 -34
25 -42 0 -9 9 -20 20 -26 11 -6 20 -17 20 -25 0 -8 9 -19 20 -25 11 -6 18 -15
15 -20 -3 -6 5 -21 19 -35 15 -14 26 -31 26 -37 0 -13 66 -114 80 -123 6 -3
10 -17 10 -30 0 -12 7 -25 15 -29 8 -3 15 -14 15 -24 0 -28 76 -185 99 -206
10 -9 25 -31 31 -47 7 -16 17 -29 23 -29 6 0 7 -3 4 -6 -4 -4 0 -19 7 -33 8
-14 20 -42 29 -61 8 -19 24 -55 35 -80 11 -25 23 -64 27 -86 l6 -42 -91 89
c-50 49 -95 89 -101 89 -6 0 -7 5 -4 10 3 6 -1 10 -9 10 -9 0 -16 5 -16 10 0
6 -5 10 -12 10 -11 0 -108 58 -118 71 -8 10 -54 33 -62 31 -5 -1 -8 3 -8 8 0
6 -6 10 -12 10 -7 0 -35 12 -63 25 -27 14 -58 25 -67 25 -10 0 -36 10 -58 21
-69 36 -244 65 -282 47 -15 -7 -18 -22 -18 -86 0 -173 -21 -396 -41 -439 -15
-31 -20 -64 -20 -134 -1 -76 -5 -96 -20 -113 -11 -11 -19 -25 -20 -30 0 -6 -1
-42 -3 -81 -1 -47 -9 -85 -23 -115 -13 -27 -24 -73 -26 -113 -3 -40 -11 -75
-20 -85 -8 -10 -17 -48 -20 -91 -4 -44 -12 -80 -21 -90 -8 -9 -17 -32 -19 -51
-3 -19 -12 -55 -20 -80 -9 -25 -18 -62 -21 -84 -4 -21 -15 -50 -26 -63 -13
-17 -20 -41 -20 -71 0 -33 -7 -54 -26 -79 -14 -18 -23 -33 -20 -33 9 0 -16
-75 -32 -92 -8 -10 -13 -18 -9 -18 10 0 -14 -74 -31 -93 -8 -9 -12 -20 -9 -24
4 -3 2 -12 -5 -20 -6 -7 -8 -16 -5 -19 3 -3 -6 -22 -19 -41 -13 -20 -24 -44
-24 -53 0 -10 -6 -23 -14 -29 -8 -7 -17 -27 -20 -45 -4 -19 -13 -39 -21 -46
-8 -7 -20 -30 -26 -53 -6 -22 -17 -46 -25 -54 -8 -8 -14 -25 -14 -38 0 -14 -9
-29 -20 -35 -11 -6 -20 -20 -20 -30 0 -11 -9 -28 -20 -37 -11 -10 -20 -22 -20
-28 0 -6 -11 -26 -25 -45 -14 -19 -25 -41 -25 -50 0 -9 -9 -25 -20 -35 -11
-10 -20 -25 -20 -34 0 -9 -9 -24 -20 -34 -11 -9 -20 -23 -20 -32 0 -8 -9 -19
-20 -25 -11 -6 -20 -19 -20 -29 0 -10 -9 -30 -20 -44 -11 -14 -20 -32 -20 -40
0 -9 -4 -18 -9 -21 -12 -8 -110 -151 -118 -173 -4 -9 -15 -25 -25 -35 -10 -10
-18 -26 -18 -36 0 -9 -9 -23 -20 -30 -11 -7 -20 -19 -20 -27 0 -8 -5 -15 -11
-15 -5 0 -17 -16 -25 -35 -8 -20 -21 -38 -29 -42 -8 -3 -15 -11 -15 -19 0 -8
-9 -22 -20 -31 -11 -10 -20 -23 -20 -30 0 -6 -11 -24 -25 -39 -14 -15 -25 -33
-25 -39 0 -7 -7 -15 -15 -19 -8 -3 -15 -12 -15 -21 0 -14 -33 -57 -72 -93 -10
-9 -18 -21 -18 -28 0 -6 -9 -19 -20 -29 -11 -10 -20 -26 -20 -35 0 -9 -24 -41
-53 -72 -29 -30 -60 -70 -67 -89 -8 -18 -31 -49 -52 -68 -21 -20 -38 -40 -38
-46 0 -5 -9 -16 -20 -23 -11 -7 -20 -20 -20 -31 0 -17 -52 -81 -68 -81 -9 -1
-52 -68 -52 -81 0 -5 -6 -9 -14 -9 -8 0 -28 -19 -44 -42 -41 -59 -70 -92 -119
-143 -24 -23 -43 -46 -43 -51 0 -5 -17 -27 -37 -50 -21 -22 -65 -71 -98 -109
-33 -38 -81 -90 -107 -117 -27 -26 -48 -50 -48 -52 0 -3 -27 -33 -60 -66 -33
-33 -60 -64 -60 -68 0 -4 -29 -38 -65 -77 -36 -38 -65 -75 -65 -82 0 -7 -4
-13 -10 -13 -14 0 -84 -123 -120 -209 -30 -74 -70 -148 -167 -309 -87 -143
-243 -459 -284 -574 -21 -59 -46 -124 -55 -145 -43 -100 -260 -743 -302 -898
-17 -60 -36 -161 -42 -223 -6 -63 -17 -148 -25 -190 -7 -42 -16 -99 -20 -127
-3 -27 -13 -84 -22 -125 l-17 -75 -7 40 c-4 22 -10 168 -14 325 -7 293 0 417
31 524 8 27 14 64 14 81 0 17 5 36 11 42 6 6 13 66 16 133 4 80 10 126 19 135
9 8 16 56 20 136 5 91 12 133 26 159 13 26 18 56 18 120 0 64 5 94 19 120 12
24 20 65 23 128 4 61 11 98 20 110 9 10 18 47 21 91 3 41 12 80 20 90 8 9 18
45 21 81 4 36 13 74 21 86 7 11 18 46 24 77 6 31 17 69 24 84 8 16 17 47 20
71 3 24 12 51 20 60 8 9 17 36 20 60 3 24 12 51 20 60 8 9 18 38 21 64 4 25
14 52 21 58 8 7 15 24 15 39 0 15 9 45 20 66 11 22 21 51 22 65 1 14 7 32 15
41 7 8 14 29 16 46 2 17 13 42 24 57 13 16 19 34 15 48 -3 14 -1 19 6 14 13
-8 32 24 32 52 0 11 7 25 15 32 8 7 15 29 15 50 0 24 7 43 20 55 14 12 20 31
20 57 0 22 6 46 14 53 7 8 17 36 21 62 4 26 11 54 17 60 6 7 12 36 15 65 3 29
12 60 20 70 8 9 17 36 19 60 3 23 13 54 21 68 10 15 16 44 15 77 0 29 3 51 8
48 16 -10 27 21 33 89 4 39 12 73 19 77 7 5 14 13 14 19 1 5 3 13 4 18 3 9 6
47 8 90 1 18 6 31 10 28 14 -8 30 34 37 94 3 30 12 64 19 75 7 11 16 34 19 50
16 83 25 113 41 137 10 15 20 56 23 90 5 49 11 68 29 85 24 22 30 60 24 146
-1 15 11 48 25 74 22 36 27 58 26 102 -1 63 16 156 35 186 8 13 14 70 16 161
3 115 7 144 21 158 9 9 14 23 11 31 -4 8 -2 15 2 15 5 0 9 48 10 108 1 119 10
192 29 238 8 20 13 93 14 214 1 101 4 187 6 191 3 3 4 154 3 335 -2 394 -1
478 2 546 2 40 -1 54 -16 65 -42 30 -93 -2 -118 -73 -22 -64 -103 -200 -143
-240 -19 -19 -43 -34 -53 -34 -11 0 -20 -5 -20 -10 0 -6 -11 -15 -25 -20 -14
-5 -25 -14 -25 -20 0 -18 -43 -60 -62 -60 -10 0 -18 -6 -18 -13 0 -7 -10 -17
-22 -22 -13 -6 -22 -17 -20 -24 2 -9 -4 -12 -17 -8 -11 3 -26 -2 -32 -10 -7
-8 -28 -21 -46 -28 -19 -8 -32 -18 -29 -23 2 -4 -5 -9 -17 -9 -11 -1 -24 -9
-29 -17 -4 -8 -22 -18 -39 -21 -43 -10 -99 -44 -99 -61 0 -9 -9 -13 -30 -10
-22 3 -35 -2 -46 -18 -8 -11 -17 -20 -19 -18 -18 9 -42 -7 -111 -74 -66 -64
-82 -75 -105 -72 -17 3 -30 -1 -33 -8 -3 -7 -25 -16 -50 -19 -25 -4 -51 -13
-57 -21 -6 -8 -24 -14 -39 -14 -28 0 -55 -21 -43 -33 3 -4 -7 -7 -23 -6 -16 0
-23 3 -16 6 6 2 12 9 12 15 0 6 18 27 39 47 22 20 62 65 90 101 28 36 57 72
66 81 8 9 15 18 15 22 0 3 11 17 25 31 14 14 25 32 25 39 0 8 7 17 15 21 8 3
15 14 15 25 0 11 4 22 9 26 13 7 71 93 71 104 0 4 11 18 25 31 14 13 25 30 25
37 0 8 9 23 20 35 11 12 20 29 20 38 0 9 9 25 20 35 11 10 20 25 20 34 0 9 9
22 20 29 11 7 20 23 20 37 0 14 8 29 20 35 11 6 20 21 20 34 0 13 9 31 19 40
10 10 22 34 26 54 4 20 15 47 26 60 10 14 19 33 19 43 0 11 9 28 20 39 13 13
20 33 20 60 0 29 5 42 20 50 16 8 20 21 20 59 0 39 4 52 21 63 19 12 22 22 20
90 -1 65 1 79 19 95 17 17 21 36 25 140 5 106 3 123 -12 142 -26 32 -106 38
-134 10 -15 -15 -30 -19 -62 -17 -33 2 -46 -2 -59 -19 -11 -13 -25 -19 -37
-16 -13 3 -24 -2 -33 -16 -8 -13 -23 -21 -41 -21 -20 0 -30 -6 -34 -20 -4 -15
-13 -20 -32 -18 -31 2 -51 -8 -51 -26 0 -8 -11 -13 -27 -13 -15 0 -34 -9 -42
-20 -9 -10 -27 -19 -41 -20 -13 -1 -30 -9 -36 -18 -7 -9 -27 -15 -52 -15 -50
0 -72 -8 -72 -25 0 -11 -15 -13 -71 -8 -67 6 -70 5 -76 -16 -5 -18 -11 -22
-32 -17 -14 3 -89 10 -166 17 -153 12 -211 28 -107 29 46 0 64 4 68 15 4 11
21 15 59 15 51 0 84 17 67 35 -4 4 15 5 42 2 39 -4 51 -1 64 14 9 10 28 19 42
19 14 0 34 9 43 21 10 11 24 18 32 16 7 -3 21 3 31 14 9 10 23 19 30 19 7 0
21 11 32 25 11 14 27 25 36 25 9 0 21 9 28 20 7 11 18 20 25 20 7 0 17 9 23
20 6 10 25 36 44 56 29 32 34 45 39 108 3 39 13 89 22 110 30 71 -1 136 -65
136 -14 0 -30 -4 -35 -9 -13 -11 -105 -23 -105 -13 0 4 -15 12 -32 17 -23 7
-33 16 -34 31 -1 28 -12 44 -29 44 -7 0 -17 9 -20 20 -3 11 -16 22 -29 26 -13
3 -32 24 -46 50 -14 24 -30 44 -37 44 -7 0 -13 6 -13 14 0 8 -9 21 -19 28 -11
8 -23 26 -26 41 -4 15 -15 33 -24 40 -20 15 -36 40 -57 90 -9 20 -22 37 -29
37 -7 0 -16 16 -19 35 -4 19 -16 39 -26 45 -13 7 -20 21 -20 40 0 19 -7 34
-20 42 -11 7 -20 23 -20 35 0 13 -6 23 -14 23 -8 0 -17 15 -20 36 -4 19 -16
44 -26 54 -10 10 -22 36 -26 57 -4 21 -15 53 -26 71 -10 18 -18 43 -18 56 0
13 -7 27 -16 30 -8 3 -12 11 -9 16 4 6 1 18 -6 26 -6 8 -9 17 -6 20 3 4 -3 28
-14 55 -10 28 -19 61 -19 74 0 14 -9 42 -20 62 -11 21 -20 54 -20 74 0 21 -8
47 -20 62 -12 15 -20 40 -20 64 0 21 -11 70 -25 108 -13 39 -25 86 -25 105 0
20 -9 53 -20 75 -11 22 -20 59 -20 82 0 24 -8 55 -17 69 -14 22 -17 62 -19
272 -2 152 0 239 6 227 5 -11 9 -29 9 -41z m8882 -3739 c8 -13 37 -47 64 -77
28 -29 58 -65 68 -78 21 -30 88 -128 102 -151 5 -9 27 -41 48 -70 20 -30 37
-62 37 -71 0 -10 9 -35 20 -55 11 -21 20 -45 20 -54 0 -21 50 -79 68 -79 7 0
27 -16 45 -35 17 -19 35 -35 39 -35 9 0 53 -42 53 -50 0 -5 20 -27 151 -160
24 -25 44 -49 44 -53 0 -7 4 -12 70 -88 22 -25 37 -49 33 -52 -3 -4 -1 -7 5
-7 7 0 12 -5 12 -10 0 -6 24 -45 53 -87 28 -41 56 -84 62 -94 5 -11 13 -19 17
-19 5 0 8 -7 8 -15 0 -8 5 -15 10 -15 6 0 10 -7 10 -15 0 -8 5 -15 10 -15 6 0
10 -6 10 -13 0 -8 9 -22 20 -32 11 -10 20 -24 20 -32 0 -7 5 -13 11 -13 5 0
17 -16 25 -35 8 -19 19 -35 24 -35 6 0 10 -7 10 -15 0 -8 9 -23 20 -32 11 -10
20 -22 20 -28 0 -14 35 -83 53 -104 7 -9 24 -38 37 -66 12 -27 33 -63 46 -78
13 -15 31 -43 40 -62 9 -19 20 -35 25 -35 5 0 9 -11 9 -24 0 -14 5 -28 11 -32
6 -3 19 -20 29 -37 25 -41 106 -133 160 -182 25 -22 63 -59 85 -82 23 -24 45
-43 51 -43 5 0 28 -17 50 -39 23 -21 50 -42 61 -45 12 -4 28 -18 37 -31 9 -14
21 -25 28 -25 6 0 21 -10 34 -22 44 -42 64 -58 75 -58 6 0 32 -18 57 -41 67
-59 82 -63 186 -49 76 10 90 10 97 -2 5 -8 23 -15 41 -16 28 0 44 -12 103 -77
39 -42 104 -112 145 -156 l75 -78 70 -7 c46 -5 76 -13 89 -26 11 -10 30 -18
42 -18 20 0 50 -21 132 -90 13 -11 25 -20 28 -20 2 0 35 -31 73 -70 39 -38 73
-70 77 -70 3 0 14 -10 23 -22 13 -16 34 -23 85 -29 50 -6 75 -15 97 -34 17
-14 41 -25 55 -25 14 0 24 -6 24 -14 0 -7 12 -22 28 -32 15 -10 43 -33 62 -51
142 -137 195 -183 210 -183 9 0 26 -9 38 -20 13 -13 44 -23 84 -29 46 -6 66
-14 76 -30 8 -11 24 -21 36 -21 11 0 35 -13 52 -30 18 -16 34 -27 37 -24 3 3
8 -4 12 -15 3 -12 12 -21 18 -21 17 0 67 -51 204 -208 25 -29 56 -55 69 -58
13 -3 26 -14 29 -24 3 -11 15 -22 26 -25 12 -4 30 -16 40 -26 15 -15 33 -19
82 -19 68 0 129 -14 149 -33 7 -7 20 -16 28 -20 34 -17 62 -35 83 -55 15 -14
51 -24 119 -35 124 -19 175 -46 194 -102 17 -50 37 -65 84 -63 39 1 72 -16 96
-51 9 -12 21 -21 27 -21 18 0 157 -147 157 -165 0 -8 5 -24 10 -35 6 -11 15
-29 20 -40 6 -11 10 -29 10 -40 0 -11 5 -20 10 -20 6 0 10 -11 10 -24 0 -14 5
-28 11 -31 6 -4 8 -12 6 -19 -3 -6 1 -20 9 -30 7 -11 11 -23 8 -27 -4 -7 4
-28 28 -69 5 -8 20 -39 34 -67 14 -29 30 -55 35 -58 5 -4 7 -10 4 -15 -3 -5 3
-18 15 -30 11 -11 17 -20 13 -20 -5 0 -1 -5 7 -10 8 -5 11 -10 5 -10 -15 0
-74 38 -141 91 -34 27 -67 49 -72 49 -6 0 -16 8 -21 18 -6 9 -11 13 -11 9 0
-4 -26 18 -57 48 -32 31 -69 63 -84 70 -36 19 -97 89 -151 171 -45 70 -133
148 -240 212 -20 13 -38 26 -40 30 -2 4 -19 15 -38 24 -60 29 -114 62 -140 86
-14 12 -34 25 -45 28 -11 4 -29 14 -40 24 -14 13 -44 19 -105 23 -104 6 -151
24 -193 75 -10 12 -27 22 -38 22 -11 0 -22 7 -26 17 -4 9 -21 30 -39 47 -17
17 -49 54 -69 81 -47 63 -116 135 -129 135 -6 0 -29 20 -53 45 -26 29 -50 45
-65 45 -13 0 -29 9 -35 19 -8 13 -30 22 -65 27 -29 4 -56 7 -60 6 -4 -1 -15
10 -24 24 -9 14 -22 23 -29 20 -19 -7 -84 44 -199 159 -68 66 -127 115 -154
127 -24 11 -45 25 -48 32 -3 7 -25 14 -52 15 -72 2 -95 14 -173 86 -9 8 -18
15 -21 15 -12 0 -97 88 -91 94 4 3 -1 6 -10 6 -8 0 -24 11 -35 25 -11 14 -25
25 -30 25 -6 0 -17 8 -24 18 -13 17 -78 42 -112 42 -9 0 -25 9 -36 20 -15 15
-33 20 -77 20 -31 0 -54 3 -50 6 3 3 -30 38 -73 76 -44 38 -98 95 -121 125
-59 76 -84 93 -135 93 -26 0 -44 -5 -44 -11 0 -18 -106 -6 -128 14 -10 9 -30
17 -45 17 -14 0 -39 11 -55 25 -17 14 -37 25 -45 25 -8 0 -17 7 -21 15 -3 8
-12 15 -21 15 -8 0 -15 5 -15 11 0 5 -4 8 -9 4 -5 -3 -18 6 -29 20 -11 13 -22
21 -26 18 -8 -8 -92 81 -111 117 -7 14 -34 44 -59 68 -25 23 -46 47 -46 53 0
6 -11 20 -25 31 -14 11 -25 25 -25 32 0 6 -26 33 -57 59 -32 26 -70 58 -85 70
-15 12 -39 31 -54 42 -93 70 -107 88 -180 230 -58 114 -67 129 -83 142 -9 7
-11 13 -6 13 7 0 7 3 0 8 -14 10 -95 131 -95 141 0 5 -6 14 -14 20 -8 7 -24
31 -36 54 -12 23 -28 46 -36 50 -8 4 -14 15 -14 22 0 8 -4 15 -10 15 -5 0 -10
6 -10 13 0 6 -29 42 -63 78 -92 99 -137 150 -137 156 0 8 -176 179 -209 202
-33 24 -102 28 -119 8 -6 -7 -12 -38 -14 -70 l-3 -56 -58 83 c-76 110 -159
205 -225 256 -32 26 -54 52 -58 68 -3 15 -12 39 -20 54 -8 14 -14 35 -14 46 0
33 -30 92 -96 190 -26 38 -48 87 -58 129 -10 37 -21 70 -25 73 -5 3 -4 37 0
75 5 39 12 116 17 173 7 80 13 107 28 120 24 23 56 17 75 -13z m-12037 -360
c29 -27 33 -62 15 -130 -6 -22 -10 -48 -10 -58 0 -9 -4 -15 -8 -13 -4 3 -9
-16 -10 -41 -1 -30 -14 -74 -37 -122 -59 -123 -67 -145 -65 -173 0 -15 -9 -38
-22 -55 -13 -15 -30 -46 -37 -68 -7 -22 -21 -51 -31 -64 -11 -13 -19 -34 -19
-47 0 -12 -15 -52 -34 -88 -19 -35 -32 -67 -29 -70 11 -11 -60 -165 -103 -222
-13 -17 -21 -34 -18 -36 2 -3 -2 -11 -11 -18 -8 -7 -15 -19 -15 -26 0 -8 -5
-14 -11 -14 -5 0 -7 -5 -4 -10 3 -6 0 -13 -9 -16 -18 -7 -56 -83 -97 -194 -46
-127 -70 -179 -110 -240 -20 -30 -42 -67 -50 -81 -40 -74 -59 -104 -147 -221
-52 -71 -96 -128 -98 -128 -2 0 16 31 41 69 54 86 96 167 135 266 37 93 84
187 120 240 80 119 257 481 281 575 38 144 37 272 -2 311 -15 15 -33 19 -86
19 -73 0 -90 -7 -177 -74 -26 -20 -52 -36 -58 -36 -5 0 -33 -24 -61 -53 -29
-29 -97 -93 -151 -142 -54 -50 -133 -133 -175 -185 -41 -52 -111 -133 -156
-180 -44 -48 -123 -144 -175 -215 -52 -71 -116 -150 -141 -175 -81 -83 -199
-150 -263 -150 -43 0 -85 -32 -151 -117 -47 -62 -61 -73 -93 -78 -75 -12 -139
-40 -203 -91 -78 -62 -112 -100 -143 -163 -34 -66 -77 -97 -191 -134 -100 -34
-118 -53 -224 -235 -23 -40 -53 -80 -67 -89 -31 -20 -128 -30 -138 -14 -4 6
-25 11 -47 11 -52 0 -186 -28 -221 -46 -15 -8 -54 -14 -87 -14 -93 0 -133 -23
-175 -101 -17 -30 -129 -109 -154 -109 -10 0 -27 -7 -38 -15 -13 -10 -46 -14
-111 -15 -81 0 -96 -3 -118 -22 -14 -12 -25 -25 -25 -30 0 -11 -145 -156 -195
-194 -133 -102 -139 -105 -230 -103 -75 1 -87 -1 -113 -22 -16 -13 -47 -37
-68 -54 -21 -16 -57 -48 -80 -70 -22 -22 -58 -53 -78 -70 -21 -16 -46 -38 -57
-47 -10 -10 -22 -18 -27 -18 -4 0 -13 -9 -20 -20 -7 -11 -16 -20 -22 -20 -9 0
-53 -37 -122 -102 -16 -16 -35 -28 -43 -28 -8 0 -15 -7 -15 -15 0 -9 -8 -19
-17 -22 -10 -4 -31 -17 -46 -30 -16 -13 -35 -23 -43 -23 -15 0 -69 -27 -159
-81 -45 -26 -118 -62 -185 -90 -14 -6 -42 -19 -62 -29 -27 -13 -35 -14 -31 -4
3 8 9 14 14 14 12 0 85 111 92 141 8 31 108 110 176 139 13 6 56 41 95 78 39
38 98 90 131 118 70 57 140 122 240 219 40 39 93 88 120 110 26 22 55 47 64
55 68 59 81 64 176 61 86 -2 92 -1 130 27 22 16 61 51 87 78 26 27 61 63 78
80 16 16 30 35 30 42 0 7 4 12 9 12 4 0 37 27 73 59 100 92 124 102 221 96 45
-3 96 -7 112 -9 33 -4 68 11 102 43 12 12 27 21 34 21 11 0 29 15 122 104 l41
38 95 -6 c92 -7 97 -6 130 18 34 25 81 86 81 105 0 6 4 11 8 11 5 0 17 17 28
38 10 20 33 55 51 78 27 35 37 40 76 43 30 1 48 -3 54 -12 21 -35 151 -49 161
-17 7 21 70 80 86 80 7 0 21 12 30 26 10 14 23 23 29 21 7 -2 22 7 34 20 13
13 34 23 49 23 16 0 39 11 55 26 14 14 35 27 45 28 11 2 19 7 19 12 0 5 8 18
18 29 57 65 78 92 102 141 15 30 31 54 36 54 5 0 9 7 9 15 0 8 6 15 14 15 8 0
23 11 33 25 10 14 31 28 47 31 38 7 42 9 114 73 33 30 59 58 56 63 -3 4 0 8 5
8 14 0 106 93 103 103 -1 5 7 6 18 2 11 -4 20 -2 20 4 0 7 24 10 68 8 76 -4
118 4 114 22 -1 6 10 16 25 22 15 5 46 30 69 55 23 24 45 44 49 44 3 0 26 14
50 30 24 17 50 30 57 30 7 0 25 12 39 28 14 15 40 41 59 58 46 40 67 67 96
123 14 25 30 51 37 56 7 6 23 27 36 48 12 20 27 37 32 37 6 0 7 5 4 10 -3 6 1
13 9 16 9 3 32 39 52 80 20 41 40 74 45 74 5 0 9 7 9 15 0 8 4 15 8 15 5 0 13
10 19 23 13 29 82 112 161 196 34 36 62 70 62 74 0 5 12 22 28 37 15 16 42 46
60 67 79 92 116 128 126 125 6 -2 8 0 3 4 -9 9 31 54 48 54 13 0 55 45 55 59
0 5 10 16 23 24 12 9 35 27 51 41 16 14 37 26 48 26 10 0 18 4 18 10 0 5 17
17 38 26 20 10 45 24 55 33 25 21 91 39 148 40 36 1 52 -4 73 -24z m12656
-1183 c41 -89 68 -157 74 -189 1 -7 5 -16 9 -19 4 -4 7 -17 7 -28 0 -12 9 -36
20 -54 11 -18 18 -37 15 -42 -3 -5 -1 -11 5 -15 5 -3 10 -17 10 -31 0 -13 5
-24 10 -24 6 0 10 -11 10 -25 0 -14 4 -25 9 -25 5 0 12 -18 16 -40 4 -22 11
-40 16 -40 5 0 9 -10 9 -23 0 -12 9 -40 20 -62 11 -22 20 -45 20 -51 0 -6 7
-25 15 -40 8 -16 15 -37 15 -46 0 -9 5 -20 10 -23 6 -4 8 -11 5 -16 -4 -5 -3
-14 1 -21 8 -12 16 -63 9 -57 -1 2 -18 42 -36 89 -18 46 -45 106 -61 133 -15
26 -28 54 -28 62 0 7 -6 20 -12 27 -7 7 -14 29 -15 47 -1 19 -9 39 -18 43 -9
6 -15 23 -15 47 0 25 -5 41 -15 45 -9 3 -15 18 -15 40 0 21 -6 36 -15 40 -8 3
-15 16 -15 30 0 14 -7 32 -16 41 -11 11 -14 25 -10 45 3 19 0 34 -9 44 -8 8
-15 25 -15 38 0 13 -7 33 -15 44 -8 10 -15 31 -15 46 0 15 -7 33 -15 42 -8 8
-15 20 -15 27 0 22 28 -11 50 -59z m-10585 -408 c89 -7 220 -5 223 4 4 13 164
2 189 -14 12 -8 45 -14 72 -14 27 0 53 -4 56 -10 3 -5 35 -10 71 -10 49 0 64
-3 64 -15 0 -21 32 -35 79 -35 49 0 71 -8 71 -26 0 -8 9 -14 20 -14 23 0 100
-66 100 -86 0 -8 4 -14 9 -14 5 0 11 -9 14 -19 3 -13 17 -21 47 -26 42 -7 50
-12 107 -64 16 -14 37 -25 46 -23 9 2 18 -1 18 -7 1 -6 2 -17 3 -23 1 -7 8
-12 16 -10 7 2 17 -3 21 -10 11 -18 69 -83 180 -201 88 -93 96 -106 102 -151
4 -27 13 -57 21 -65 7 -9 16 -36 19 -61 4 -28 13 -51 26 -62 12 -9 21 -25 21
-37 0 -18 28 -55 98 -129 13 -13 22 -33 20 -46 -2 -14 8 -30 28 -48 26 -23 32
-37 37 -85 16 -144 20 -158 43 -180 26 -24 49 -100 32 -105 -12 -4 -15 -89 -4
-106 4 -7 5 -16 2 -21 -3 -5 1 -26 10 -46 8 -21 13 -43 10 -51 -3 -7 -1 -14 4
-16 5 -2 15 -36 22 -77 10 -59 10 -75 0 -79 -16 -5 -15 -31 3 -116 12 -58 12
-70 1 -82 -11 -10 -13 -36 -9 -114 4 -72 3 -100 -6 -100 -7 0 -11 -21 -11 -56
0 -41 -6 -64 -21 -86 -12 -16 -18 -32 -15 -35 3 -4 0 -16 -7 -27 -7 -12 -21
-48 -31 -81 -10 -33 -22 -64 -27 -69 -5 -6 -9 -19 -9 -30 0 -12 -7 -32 -14
-46 -8 -14 -29 -54 -47 -90 -18 -36 -41 -76 -51 -89 -12 -16 -18 -41 -18 -75
0 -29 -7 -59 -15 -70 -8 -11 -15 -29 -15 -39 0 -11 -11 -35 -25 -53 -14 -18
-25 -36 -25 -39 0 -3 -19 -30 -42 -60 -24 -30 -61 -79 -83 -110 -22 -32 -59
-78 -82 -105 -24 -26 -43 -52 -43 -57 0 -19 -181 -203 -200 -203 -9 0 -29 -9
-43 -20 -14 -11 -34 -20 -45 -20 -11 0 -46 -20 -78 -45 -31 -25 -66 -45 -76
-45 -10 0 -31 -8 -46 -18 -48 -31 -66 -42 -102 -58 -19 -9 -42 -22 -50 -29 -8
-7 -35 -15 -60 -19 -24 -4 -52 -14 -61 -22 -9 -8 -43 -18 -75 -21 -33 -3 -67
-13 -77 -22 -15 -12 -49 -16 -160 -19 -114 -3 -146 -7 -161 -21 -25 -22 -280
-21 -329 2 -18 8 -59 18 -92 21 -39 4 -64 12 -73 23 -9 13 -26 17 -71 16 -50
-2 -63 2 -86 23 -19 17 -33 22 -50 18 -25 -6 -38 2 -119 69 -19 15 -39 27 -45
27 -6 0 -14 7 -17 15 -4 8 -11 15 -17 15 -16 0 -219 199 -283 277 -56 68 -160
229 -157 240 3 7 -5 17 -16 23 -12 6 -21 17 -21 24 0 7 -13 27 -30 44 -16 18
-30 42 -30 54 0 13 -7 31 -15 41 -7 11 -17 38 -20 60 -4 23 -13 49 -20 57 -15
18 -30 60 -26 78 1 7 -5 15 -14 18 -8 3 -15 13 -15 21 0 8 -4 12 -9 9 -4 -3
-11 23 -13 59 -3 37 -12 70 -20 79 -9 8 -17 43 -21 85 -3 39 -13 81 -21 93 -9
12 -17 18 -17 13 -3 -27 -17 58 -18 111 -1 39 -6 66 -15 73 -8 7 -16 41 -20
84 -3 40 -8 92 -12 116 -3 23 -3 103 1 177 6 114 9 134 25 139 10 3 17 16 18
33 1 61 11 102 33 131 21 28 22 36 15 139 -6 104 -5 110 14 115 17 4 20 13 20
56 0 40 4 52 20 61 13 7 20 21 20 39 0 16 6 34 14 40 8 7 17 23 20 36 3 13 15
29 26 35 11 6 20 18 20 26 0 9 18 38 40 64 22 26 40 52 40 57 0 12 125 132
162 156 15 9 35 17 45 17 10 0 27 6 38 14 12 8 46 14 84 14 42 0 66 4 72 13 5
9 33 14 86 15 47 1 79 6 81 13 5 14 99 15 107 0 4 -6 13 -8 20 -5 19 7 216
-22 240 -36 18 -10 36 -14 101 -21 12 -1 36 -14 55 -29 22 -19 44 -28 67 -28
24 0 40 -7 54 -25 11 -14 29 -25 42 -25 12 0 55 -27 96 -60 41 -33 89 -66 105
-74 27 -13 114 -84 136 -111 5 -5 23 -27 40 -48 18 -21 47 -68 66 -105 18 -37
42 -77 53 -89 11 -13 20 -26 20 -29 0 -3 11 -20 25 -38 14 -18 25 -41 25 -50
0 -10 11 -32 24 -49 24 -31 49 -111 38 -121 -2 -3 0 -11 5 -18 10 -12 17 -43
28 -121 2 -12 8 -36 13 -54 6 -17 8 -34 5 -37 -3 -3 0 -12 6 -20 12 -15 16
-65 11 -162 -2 -29 1 -57 5 -64 4 -7 2 -16 -6 -21 -9 -5 -13 -24 -11 -55 1
-32 -4 -54 -14 -65 -8 -9 -16 -31 -16 -48 -1 -17 -7 -36 -15 -42 -7 -6 -13
-19 -13 -29 0 -9 -11 -30 -25 -46 -14 -16 -25 -35 -25 -43 0 -21 -137 -151
-159 -151 -10 0 -26 -8 -35 -19 -9 -10 -33 -21 -53 -24 -19 -4 -44 -14 -55
-24 -18 -16 -42 -18 -213 -18 -163 0 -196 2 -211 16 -11 9 -38 19 -62 23 -23
3 -59 15 -80 26 -20 11 -43 20 -50 20 -31 0 -212 161 -212 188 0 8 -9 25 -20
39 -14 18 -20 41 -20 73 0 32 -6 55 -20 73 -12 15 -20 40 -20 62 0 22 8 47 20
62 11 14 20 38 20 53 0 15 10 36 25 50 14 13 25 28 25 34 0 13 61 76 73 76 5
0 20 9 34 20 22 17 41 20 139 20 83 0 113 -3 112 -12 -2 -6 9 -18 23 -25 25
-12 90 -80 137 -141 24 -33 28 -87 11 -161 -15 -66 -7 -79 57 -87 74 -9 120 6
169 55 22 22 46 40 54 41 7 0 11 6 8 14 -3 8 2 22 12 33 22 23 42 92 48 163 3
30 10 61 16 68 24 29 -16 366 -46 400 -10 10 -17 23 -17 28 0 5 -14 22 -30 38
-17 16 -30 35 -30 42 0 8 -24 31 -52 53 -29 22 -72 57 -96 78 -23 20 -55 42
-70 49 -15 6 -36 21 -46 33 -11 11 -23 21 -28 21 -6 0 -18 10 -27 22 -10 11
-27 22 -38 23 -11 0 -34 12 -51 26 -21 18 -43 26 -76 27 -25 1 -103 9 -174 16
-143 16 -160 16 -172 -5 -6 -9 -27 -14 -59 -14 -38 0 -55 -6 -73 -23 -14 -12
-36 -22 -51 -22 -14 0 -30 -7 -34 -15 -5 -8 -24 -15 -43 -17 -20 -1 -41 -10
-48 -20 -7 -10 -18 -18 -23 -18 -12 0 -69 -58 -69 -70 0 -6 -8 -15 -18 -21
-15 -9 -17 -22 -14 -84 4 -64 1 -78 -17 -101 -13 -16 -21 -41 -21 -64 0 -24
-5 -40 -15 -44 -9 -3 -15 -18 -15 -40 0 -19 -7 -41 -15 -50 -8 -8 -15 -19 -15
-25 0 -6 -5 -11 -10 -11 -7 0 -10 -66 -8 -194 2 -107 6 -192 11 -189 4 2 7
-41 7 -97 0 -67 5 -110 14 -128 8 -15 17 -69 21 -120 5 -62 12 -95 21 -100 10
-6 16 -39 20 -112 4 -66 11 -109 19 -115 11 -9 32 -108 27 -128 -1 -5 8 -23
20 -40 15 -20 23 -47 23 -76 1 -32 7 -48 23 -61 12 -10 22 -28 22 -40 0 -24
24 -53 35 -42 5 4 5 -3 2 -16 -4 -17 6 -37 41 -80 64 -80 145 -162 159 -162 7
0 20 -11 29 -25 9 -14 24 -25 33 -25 9 0 34 -16 55 -35 21 -19 42 -35 46 -35
4 0 18 -8 31 -19 20 -15 47 -19 160 -23 120 -4 140 -7 174 -28 36 -22 43 -23
167 -16 82 4 137 11 151 20 14 8 65 16 136 19 82 4 118 10 130 21 10 9 33 19
52 22 19 4 45 15 58 26 13 10 30 18 38 18 8 0 26 9 40 20 14 11 33 20 43 20
10 0 29 9 43 20 14 11 28 20 32 20 4 0 28 17 54 38 25 21 60 46 76 57 17 10
62 48 100 85 39 36 98 90 133 120 63 52 176 207 188 255 3 13 14 31 25 41 10
9 19 25 19 34 0 9 9 25 20 35 11 10 20 28 20 40 0 12 9 30 20 40 11 10 20 30
20 44 0 14 9 37 20 51 11 14 20 35 20 47 0 12 7 26 15 31 9 4 17 19 17 33 1
13 10 34 19 47 9 12 15 31 12 41 -3 10 2 30 11 43 9 14 13 37 11 58 -3 21 1
43 11 58 19 29 15 131 -9 212 -9 30 -13 57 -9 60 13 10 12 95 -2 135 -10 30
-11 45 -3 60 12 22 10 91 -4 116 -4 9 -10 32 -12 50 -2 19 -7 41 -11 48 -5 8
-4 16 4 21 9 6 11 28 8 78 -4 58 -10 78 -33 109 -16 21 -32 40 -36 43 -6 5
-26 114 -28 150 -2 41 -18 91 -37 113 -12 14 -25 44 -29 68 -4 23 -16 51 -26
63 -11 11 -19 27 -19 36 0 9 -11 26 -25 38 -14 12 -25 29 -25 38 0 9 -11 25
-25 36 -14 11 -24 25 -23 30 6 17 -125 139 -154 145 -16 3 -28 12 -28 19 0 8
-6 14 -14 14 -7 0 -27 14 -44 30 -18 17 -41 30 -52 30 -11 0 -20 6 -20 14 0
15 -21 26 -49 26 -10 0 -27 12 -40 26 -13 15 -28 23 -37 20 -9 -3 -32 5 -52
19 -20 14 -42 25 -48 25 -7 0 -45 19 -85 41 -133 76 -240 113 -424 149 -33 7
-94 23 -135 35 -41 13 -120 28 -175 34 -55 6 -137 16 -182 23 -52 7 -171 9
-331 6 l-250 -5 57 29 c102 52 243 108 340 134 53 14 139 37 191 51 73 19 117
25 191 24 75 0 100 3 110 15 7 8 19 12 28 9 9 -4 39 -8 66 -11z m8646 -472
c10 -15 21 -18 64 -14 45 4 54 1 68 -18 14 -20 21 -22 79 -16 35 4 74 9 89 12
17 3 33 -2 50 -17 21 -18 32 -20 82 -15 49 5 60 3 77 -14 11 -11 29 -20 39
-20 11 0 29 -14 41 -30 12 -17 26 -28 31 -24 5 3 8 0 7 -7 -2 -8 12 -21 31
-31 19 -9 39 -24 43 -33 5 -8 18 -15 28 -15 11 0 20 -4 20 -9 0 -5 13 -14 29
-20 15 -7 34 -24 40 -39 15 -32 68 -102 94 -123 11 -9 17 -21 13 -28 -5 -7 -2
-10 6 -9 7 2 14 -7 16 -20 2 -12 14 -30 28 -38 13 -9 21 -21 17 -27 -3 -5 -1
-7 5 -3 5 3 19 -9 31 -27 11 -18 31 -43 45 -57 17 -15 24 -30 20 -42 -3 -11 1
-20 11 -24 9 -4 14 -12 11 -20 -3 -7 2 -18 9 -24 8 -7 12 -16 9 -21 -3 -5 4
-21 15 -35 12 -15 21 -40 21 -56 0 -16 7 -40 16 -54 11 -17 15 -37 11 -64 -4
-30 -1 -43 14 -56 15 -13 19 -31 19 -81 0 -42 5 -69 14 -79 9 -9 16 -10 18 -3
2 6 2 -37 0 -96 -4 -102 -3 -106 17 -112 21 -5 22 -10 20 -164 -1 -153 3 -185
21 -174 15 9 23 -126 16 -275 -6 -129 -9 -147 -28 -168 -19 -20 -22 -32 -19
-102 2 -75 1 -79 -23 -95 -20 -13 -26 -26 -26 -54 0 -25 -6 -40 -20 -49 -12
-7 -20 -23 -20 -41 0 -15 -10 -39 -22 -52 -16 -17 -23 -37 -23 -64 0 -28 -4
-40 -14 -40 -8 0 -15 -11 -16 -24 -1 -13 -9 -29 -18 -36 -9 -7 -14 -15 -11
-18 3 -3 -4 -10 -15 -17 -12 -6 -21 -16 -21 -23 0 -7 -20 -35 -45 -64 -25 -28
-45 -56 -45 -63 0 -17 -14 -32 -153 -172 -71 -70 -134 -128 -141 -128 -7 0
-21 -9 -31 -20 -10 -11 -28 -20 -39 -20 -12 0 -27 -9 -34 -20 -7 -11 -21 -20
-31 -20 -10 0 -30 -9 -44 -20 -14 -11 -35 -20 -46 -20 -12 0 -30 -9 -42 -21
-14 -14 -39 -22 -77 -26 -33 -4 -67 -14 -81 -24 -19 -16 -41 -19 -120 -19
-125 1 -228 14 -249 33 -13 12 -51 16 -167 19 l-151 3 -75 62 c-105 85 -228
226 -260 297 -6 12 -16 32 -24 46 -8 14 -15 43 -15 66 0 28 -6 47 -20 59 -18
16 -20 31 -20 130 0 82 -4 116 -15 131 -8 10 -14 35 -14 54 0 19 6 44 14 54
11 14 15 47 15 116 0 84 3 99 20 115 14 13 20 31 20 60 0 27 7 51 20 68 11 14
20 34 20 45 0 10 9 31 20 45 11 14 20 31 20 38 0 6 11 27 25 45 14 18 25 36
25 41 0 12 113 123 125 123 6 0 48 36 94 80 46 44 88 80 94 80 6 0 21 10 34
21 15 15 40 23 75 27 29 2 60 10 68 18 18 15 174 28 212 17 27 -8 143 -99 207
-164 63 -62 141 -160 141 -177 0 -10 7 -26 15 -36 19 -25 19 -100 1 -115 -7
-6 -16 -24 -19 -39 -3 -16 -30 -51 -66 -85 -47 -45 -66 -57 -91 -57 -18 0 -43
-9 -57 -20 -21 -17 -41 -20 -113 -20 -72 0 -92 3 -113 20 -14 11 -29 20 -34
20 -20 0 -111 107 -118 138 -6 31 -8 32 -58 32 -52 -1 -52 -1 -102 -65 -27
-36 -59 -82 -70 -103 -11 -21 -28 -49 -37 -62 -10 -13 -18 -41 -18 -61 0 -23
-7 -42 -20 -54 -17 -16 -20 -31 -20 -112 0 -80 3 -99 20 -120 12 -15 20 -41
20 -63 0 -24 7 -43 20 -55 11 -10 20 -28 20 -40 0 -12 8 -33 19 -46 10 -13 21
-34 25 -46 16 -51 182 -213 218 -213 8 0 23 -9 34 -21 17 -19 27 -20 155 -17
115 2 140 6 157 21 11 10 37 21 58 24 22 3 50 14 63 25 13 10 31 18 41 18 9 0
25 9 35 20 10 11 24 20 30 20 11 0 262 305 290 352 6 9 25 37 43 63 17 25 32
51 32 58 0 7 9 18 20 25 12 7 20 23 20 41 0 19 8 34 23 44 19 12 23 22 19 46
-3 23 0 31 11 31 9 0 24 16 33 36 9 20 25 41 36 47 14 9 18 24 18 67 0 37 6
64 18 80 15 22 18 58 22 260 5 234 5 235 -17 253 -21 17 -23 27 -23 103 0 72
-3 87 -21 105 -16 16 -19 28 -15 53 5 25 0 41 -19 70 -14 20 -25 47 -25 59 0
35 -11 67 -21 61 -5 -3 -9 1 -9 8 0 7 -11 36 -25 63 -13 28 -25 56 -25 63 0 6
-7 12 -15 12 -14 0 -20 17 -16 48 1 6 -2 12 -8 12 -5 0 -21 21 -36 46 -15 25
-36 55 -46 65 -10 10 -19 26 -19 34 0 8 -7 15 -15 15 -8 0 -22 14 -30 30 -9
17 -29 42 -45 57 -17 14 -30 32 -30 38 0 21 -58 65 -76 58 -13 -5 -15 -3 -9 7
5 8 3 11 -6 8 -8 -3 -20 1 -27 9 -7 7 -24 13 -37 13 -13 0 -29 10 -39 25 -9
14 -22 25 -29 24 -41 -5 -88 3 -103 19 -15 14 -37 17 -137 17 -104 0 -120 2
-129 18 -8 16 -21 18 -96 16 -64 -2 -92 -7 -107 -20 -26 -21 -78 -37 -135 -41
-26 -1 -53 -10 -64 -20 -11 -10 -30 -18 -43 -18 -27 0 -86 -32 -131 -71 -18
-16 -44 -29 -57 -29 -14 0 -30 -9 -37 -20 -7 -11 -21 -20 -30 -20 -10 0 -23
-9 -30 -20 -7 -11 -18 -20 -25 -20 -6 0 -52 -44 -102 -97 -81 -86 -91 -101
-91 -133 0 -22 -8 -48 -20 -63 -11 -14 -20 -31 -20 -39 0 -8 -11 -29 -25 -48
-14 -19 -25 -39 -25 -46 0 -6 -6 -17 -14 -23 -8 -7 -18 -27 -22 -44 -3 -18
-15 -43 -25 -56 -11 -13 -19 -34 -19 -46 0 -12 -9 -30 -20 -40 -14 -13 -20
-31 -20 -60 0 -29 -6 -47 -20 -60 -16 -15 -20 -31 -20 -85 0 -54 -4 -70 -20
-85 -16 -14 -20 -31 -20 -75 0 -42 -5 -64 -20 -83 -16 -20 -20 -40 -20 -99 0
-53 -5 -83 -19 -109 -25 -46 -36 -272 -21 -409 6 -52 14 -129 19 -170 13 -109
82 -359 110 -394 4 -6 14 -29 21 -51 14 -44 62 -143 104 -217 l27 -48 -98 46
c-54 25 -123 66 -153 91 -86 70 -250 268 -250 300 0 8 -9 26 -20 40 -12 15
-20 41 -20 63 0 21 -8 48 -19 61 -10 14 -20 48 -24 81 -3 31 -13 68 -23 83
-14 21 -19 63 -26 203 -11 216 -11 236 0 439 6 125 11 166 24 180 8 10 19 40
23 68 4 27 15 60 26 73 14 18 19 41 19 87 0 47 5 68 20 88 11 14 20 40 20 60
0 19 9 45 20 60 11 14 20 38 20 55 0 16 9 37 20 47 11 10 20 28 20 40 0 12 9
34 20 48 11 14 20 31 20 39 0 8 11 29 25 48 14 19 25 39 25 46 0 6 28 54 63
106 35 52 66 101 69 109 11 28 220 269 233 269 8 0 65 52 127 115 62 63 118
115 124 115 7 0 15 7 18 16 3 8 25 24 50 34 24 11 49 27 56 35 7 8 21 15 31
15 10 0 24 8 31 18 20 28 52 42 97 42 27 0 44 6 53 18 22 31 37 35 237 57 254
29 268 29 282 7z m-3970 -2946 c127 -20 198 -36 205 -47 3 -5 18 -9 35 -9 16
0 46 -9 66 -20 21 -11 53 -20 71 -20 19 0 46 -9 61 -19 14 -10 46 -24 71 -31
141 -38 402 -219 545 -377 l47 -53 -26 -10 c-21 -8 -26 -16 -26 -43 0 -18 5
-38 12 -45 15 -15 60 -16 75 -1 11 11 38 -30 64 -97 9 -25 8 -25 -38 10 -154
117 -287 187 -494 261 -63 22 -75 30 -75 48 1 13 -9 26 -28 36 -16 9 -38 24
-48 34 -22 20 -38 22 -62 4 -15 -11 -16 -18 -8 -34 11 -21 11 -21 -76 2 -48
12 -105 30 -126 40 -21 9 -49 14 -61 11 -12 -3 -58 2 -101 10 -117 24 -519 20
-624 -6 -41 -10 -104 -21 -140 -25 -35 -4 -82 -14 -104 -21 -55 -20 -56 -18
-3 16 50 31 54 39 35 58 -19 19 -33 15 -102 -33 -36 -25 -66 -42 -66 -38 0 3
-8 -3 -17 -14 -10 -11 -30 -23 -45 -27 -16 -3 -28 -13 -28 -20 0 -8 -12 -17
-27 -20 -34 -8 -215 -108 -339 -187 -50 -32 -126 -78 -169 -104 -72 -42 -78
-44 -90 -28 -15 20 -19 9 67 163 111 196 289 364 463 437 44 19 91 39 105 45
64 29 92 37 86 23 -7 -19 32 -26 49 -8 8 8 15 12 15 8 0 -3 10 0 23 7 12 6 45
14 72 16 28 2 57 9 65 16 8 7 35 19 60 26 25 7 52 19 61 27 8 7 40 15 70 18
30 3 97 11 149 19 129 18 239 19 351 2z m49 -667 c74 -21 198 -61 275 -88 172
-61 230 -80 275 -93 54 -16 276 -120 365 -172 44 -25 144 -78 222 -117 158
-78 186 -103 247 -218 31 -60 49 -116 101 -321 9 -36 22 -87 29 -115 101 -370
96 -346 96 -482 -1 -101 -4 -135 -18 -159 -29 -53 -238 -244 -405 -369 -87
-65 -161 -123 -163 -130 -3 -7 -35 -37 -72 -66 -109 -88 -282 -271 -282 -298
0 -6 -8 -18 -19 -28 -10 -10 -22 -29 -26 -42 -4 -14 -22 -45 -39 -70 -17 -25
-38 -59 -46 -76 -8 -16 -23 -38 -33 -48 -10 -10 -17 -23 -15 -29 2 -6 -7 -22
-20 -35 -15 -15 -21 -30 -17 -43 4 -13 0 -23 -14 -32 -12 -7 -21 -23 -21 -35
0 -12 -7 -29 -15 -37 -9 -8 -21 -30 -27 -48 -6 -18 -22 -47 -35 -64 -12 -17
-20 -34 -16 -37 3 -4 -3 -17 -15 -30 -11 -12 -24 -34 -27 -49 -4 -16 -11 -28
-15 -28 -4 0 -17 -15 -29 -32 -11 -18 -26 -42 -33 -53 -7 -11 -19 -24 -25 -28
-7 -4 -13 -15 -13 -22 0 -8 -7 -15 -15 -15 -8 0 -27 -16 -42 -35 -15 -19 -34
-35 -40 -35 -7 0 -18 -9 -25 -20 -7 -11 -19 -20 -26 -20 -7 0 -15 -7 -18 -15
-4 -8 -12 -15 -19 -15 -6 0 -24 -11 -39 -25 -15 -14 -37 -25 -49 -25 -12 0
-31 -7 -41 -15 -11 -8 -34 -15 -52 -15 -17 0 -37 -6 -43 -14 -20 -24 -61 -25
-95 -3 -30 21 -96 107 -96 127 0 5 -4 10 -10 10 -5 0 -10 13 -10 30 0 19 -7
34 -20 42 -11 7 -20 20 -20 29 0 9 -9 27 -19 41 -11 13 -23 36 -26 51 -4 14
-15 33 -26 43 -10 9 -19 25 -19 34 0 9 -9 25 -20 35 -11 10 -20 27 -20 37 0
21 -25 58 -72 110 -16 16 -28 36 -28 45 0 9 -6 13 -15 9 -11 -4 -19 3 -25 19
-5 14 -16 25 -25 25 -8 0 -15 9 -15 19 0 19 -19 46 -72 103 -16 16 -28 35 -28
43 0 7 -7 15 -15 19 -8 3 -20 17 -25 31 -5 14 -14 25 -20 25 -6 0 -15 11 -20
25 -5 14 -15 25 -22 25 -7 0 -23 16 -36 35 -12 19 -27 35 -32 35 -6 0 -10 6
-10 14 0 7 -9 16 -20 19 -13 3 -18 11 -14 20 4 11 -10 27 -45 52 -28 20 -51
41 -51 45 0 5 -17 19 -37 31 -46 28 -147 116 -257 224 -120 118 -202 172 -288
190 -93 20 -101 25 -195 121 -65 66 -83 92 -88 121 -3 21 -13 53 -21 71 -25
58 -17 389 16 637 15 112 91 348 143 441 58 105 123 155 282 215 28 11 91 49
140 84 84 62 151 98 320 174 38 18 85 44 103 58 72 55 392 176 507 193 44 6
112 17 150 25 120 23 275 11 435 -36z"/>
<path d="M18753 20495 c-29 -20 -77 -172 -68 -214 4 -20 3 -31 -4 -31 -7 0
-11 -27 -11 -72 0 -40 -5 -93 -11 -118 -6 -25 -13 -63 -15 -85 -2 -22 -10 -83
-18 -135 -9 -52 -18 -108 -20 -125 -2 -16 -14 -73 -25 -125 -11 -52 -32 -149
-46 -215 -14 -66 -31 -138 -37 -160 -7 -22 -13 -50 -14 -63 -2 -13 -30 -83
-62 -155 -33 -73 -63 -143 -67 -157 -9 -30 -52 -114 -79 -154 -14 -21 -20 -48
-21 -95 -1 -36 -7 -79 -14 -94 -6 -16 -11 -30 -11 -33 0 -2 -11 -27 -25 -56
-14 -28 -25 -57 -25 -64 0 -7 -6 -14 -12 -16 -8 -3 -13 -27 -13 -69 l0 -64 51
-3 c39 -2 56 2 77 18 15 12 27 27 27 33 0 7 17 28 36 47 20 19 50 54 67 78 17
23 34 42 39 42 4 0 8 6 8 13 0 8 9 22 20 32 11 10 20 23 20 29 0 6 13 23 29
38 15 16 34 40 42 55 8 16 17 30 20 33 8 7 49 95 49 105 0 8 62 186 84 238 6
15 16 27 23 27 19 0 27 22 11 31 -9 5 -15 16 -14 26 6 59 21 121 32 138 8 11
14 35 14 55 0 19 7 44 15 54 8 11 15 38 15 60 0 23 7 50 15 60 9 12 15 42 15
73 0 32 6 63 16 78 11 18 14 35 9 65 -4 24 -3 40 3 40 18 0 33 91 34 194 0 22
6 46 14 53 8 8 14 29 15 46 2 62 8 162 9 162 1 0 3 14 3 31 1 17 8 38 16 47
13 17 26 225 15 259 -3 9 -19 20 -37 24 -18 3 -41 13 -52 20 -26 19 -115 18
-142 -1z"/>
<path d="M18241 20268 c-7 -18 -26 -60 -42 -92 -16 -33 -29 -67 -29 -76 0 -9
-13 -36 -29 -60 -16 -24 -27 -49 -24 -57 3 -7 -2 -16 -11 -19 -9 -3 -21 -25
-28 -48 -6 -22 -19 -52 -28 -66 -10 -14 -20 -38 -24 -54 -4 -15 -17 -41 -29
-58 -21 -29 -22 -39 -28 -371 -9 -494 -22 -676 -61 -807 -17 -58 -35 -106 -39
-108 -5 -2 -9 -9 -9 -15 0 -7 -13 -40 -30 -74 -16 -35 -27 -63 -24 -63 2 0 -1
-10 -8 -22 -7 -13 -11 -26 -10 -30 2 -6 -22 -78 -45 -138 -4 -8 -7 -17 -8 -20
-1 -3 -5 -12 -8 -20 -16 -37 -27 -112 -27 -186 l0 -82 33 -3 c78 -9 115 8 157
69 8 12 19 22 25 22 9 0 32 24 104 110 16 20 32 52 36 73 4 20 11 37 15 37 9
0 24 37 46 115 9 33 21 65 26 72 5 7 7 17 3 22 -3 6 1 21 10 34 18 27 40 103
49 166 4 24 13 56 21 71 16 31 27 75 27 105 -1 38 41 250 55 284 11 25 14 52
9 101 -4 42 -3 77 5 96 6 16 15 103 19 194 5 91 14 199 20 240 12 87 18 659 7
678 -5 7 -29 12 -60 12 -49 0 -53 -2 -66 -32z"/>
<path d="M17343 19703 c-6 -15 2 -136 15 -228 10 -74 7 -346 -5 -460 -6 -55
-18 -178 -27 -273 -9 -96 -18 -177 -21 -182 -13 -20 -5 -476 9 -550 14 -73 45
-152 66 -165 6 -4 17 -22 25 -41 14 -33 15 -34 74 -34 l61 0 0 83 c1 45 1 150
0 234 0 83 3 154 8 157 5 3 14 51 21 108 6 57 16 130 22 164 18 105 31 369 36
716 l4 337 -28 15 c-15 8 -54 39 -87 70 -32 31 -68 57 -80 57 -11 1 -36 3 -54
5 -22 1 -35 -3 -39 -13z"/>
<path d="M16387 15303 c-4 -3 -7 -28 -7 -54 0 -56 39 -119 134 -217 47 -49 83
-74 156 -110 112 -55 148 -78 295 -189 250 -189 283 -220 341 -322 36 -63 68
-142 100 -240 25 -80 57 -176 70 -213 51 -146 64 -219 64 -360 0 -73 -5 -176
-11 -228 -19 -163 -12 -273 19 -297 9 -7 30 -13 47 -13 44 0 59 16 88 95 27
72 136 408 187 575 16 52 49 158 74 235 55 175 55 175 66 378 7 143 12 173 30
202 29 47 81 91 127 106 64 21 205 159 268 264 74 123 115 226 115 286 l0 49
-58 0 c-50 0 -68 -6 -136 -44 -43 -25 -94 -50 -114 -57 -82 -27 -209 -82 -242
-104 -19 -13 -84 -41 -145 -61 -96 -32 -125 -38 -225 -41 -122 -4 -130 -3
-305 55 -49 17 -117 39 -150 50 -73 25 -193 69 -300 111 -44 17 -123 43 -175
57 -52 15 -122 41 -156 60 -58 33 -138 46 -157 27z"/>
<path d="M16941 11563 c-47 -19 -141 -108 -141 -133 0 -4 -14 -23 -31 -41 -64
-68 -98 -135 -135 -263 -8 -28 -18 -54 -24 -60 -17 -17 -11 -41 14 -65 24 -23
25 -23 73 -6 58 21 93 56 93 94 0 15 9 36 20 46 11 10 20 25 20 34 0 9 20 38
45 66 25 27 45 56 45 65 0 9 13 26 30 38 16 12 44 51 61 86 30 59 31 67 19 96
-16 39 -54 57 -89 43z"/>
<path d="M16736 8065 c-22 -22 -45 -35 -61 -35 -17 0 -46 -19 -90 -62 -69 -65
-83 -101 -45 -113 23 -7 60 2 60 15 0 5 25 25 55 45 30 21 63 50 72 66 10 16
26 32 38 35 11 4 30 15 42 27 17 15 20 24 12 38 -15 29 -45 23 -83 -16z"/>
<path d="M16260 7060 c-86 -18 -132 -71 -138 -160 -4 -50 0 -69 22 -115 34
-68 66 -91 146 -104 34 -6 72 -18 84 -28 61 -51 103 -95 152 -160 29 -40 68
-80 86 -90 44 -23 132 -23 181 0 l37 18 -1 235 c0 214 -2 239 -20 274 -34 64
-67 83 -207 115 -80 19 -282 27 -342 15z"/>
<path d="M18920 7019 c-86 -10 -197 -40 -242 -66 -17 -10 -41 -36 -54 -58 -21
-38 -23 -51 -24 -250 -1 -115 -2 -221 -3 -235 -2 -20 7 -29 43 -47 80 -40 178
-22 235 45 l22 26 50 -26 c51 -27 83 -24 83 8 0 16 -57 44 -90 44 -29 0 -25
12 24 67 66 73 118 105 183 114 31 4 68 16 82 27 41 31 81 116 81 174 0 154
-117 207 -390 177z"/>
<path d="M18840 6093 c-11 -15 -28 -28 -36 -29 -23 -4 -49 -30 -70 -72 -10
-20 -29 -45 -41 -55 -13 -10 -23 -26 -23 -34 0 -33 -33 -89 -61 -105 -51 -30
-27 -94 27 -70 25 12 28 17 38 63 3 14 21 46 41 72 19 25 35 50 35 55 0 5 20
31 45 58 25 27 45 52 45 55 0 4 14 12 30 18 35 12 47 35 30 56 -18 22 -36 18
-60 -12z"/>
<path d="M3407 20626 c-60 -13 -128 -54 -158 -96 -23 -31 -69 -157 -69 -187 0
-13 -4 -23 -9 -23 -4 0 -14 -35 -21 -77 -6 -43 -16 -83 -20 -88 -5 -6 -7 -161
-5 -345 3 -367 6 -390 69 -575 19 -55 44 -135 57 -177 12 -43 26 -78 31 -78 5
0 6 -4 3 -10 -3 -5 -2 -10 4 -10 5 0 13 -9 16 -20 4 -11 20 -35 36 -52 16 -18
29 -36 29 -41 0 -8 11 -23 43 -58 9 -10 17 -21 17 -23 0 -2 16 -21 35 -42 19
-21 35 -43 35 -48 1 -17 56 -86 64 -79 6 6 10 -12 7 -30 -1 -5 3 -6 8 -2 6 3
19 -11 30 -32 10 -21 29 -48 40 -60 12 -12 21 -27 21 -33 0 -5 7 -10 15 -10 8
0 15 -6 15 -12 0 -18 69 -103 83 -103 7 -1 11 -6 9 -13 -1 -7 4 -12 12 -12 7
0 31 -16 52 -36 22 -20 51 -42 67 -50 15 -8 27 -19 27 -24 0 -6 9 -10 19 -10
11 0 23 -5 26 -11 9 -13 149 -79 170 -79 8 0 15 -4 15 -10 0 -5 7 -7 15 -4 18
7 115 -24 115 -38 0 -6 6 -8 14 -5 7 3 17 2 22 -2 5 -5 55 -21 112 -36 79 -21
107 -33 119 -51 8 -13 20 -24 27 -24 6 0 29 -18 50 -40 22 -22 45 -40 51 -40
6 0 23 -12 38 -27 32 -35 49 -47 67 -51 8 -2 17 -8 18 -13 5 -13 127 -69 150
-69 31 0 146 -42 159 -57 6 -8 16 -12 22 -8 6 3 11 1 11 -4 0 -6 3 -10 8 -9 4
1 20 -4 35 -10 16 -7 36 -12 46 -12 9 0 21 -4 27 -10 11 -11 165 -50 214 -53
19 -2 61 -4 93 -5 32 -1 56 -5 54 -9 -3 -5 25 -8 61 -8 96 -1 263 -16 258 -23
-5 -9 221 4 419 23 82 7 151 12 152 11 2 -2 -12 -14 -32 -27 -19 -13 -35 -28
-35 -32 0 -12 -42 -46 -57 -47 -7 0 -17 -9 -23 -20 -6 -11 -15 -20 -20 -20
-11 0 -144 -91 -148 -102 -2 -4 -10 -8 -18 -8 -8 0 -14 -4 -14 -10 0 -5 -7
-10 -15 -10 -8 0 -15 -4 -15 -10 0 -5 -5 -10 -11 -10 -6 0 -20 -12 -31 -26
-11 -14 -26 -23 -34 -20 -7 3 -14 1 -16 -3 -2 -4 -23 -21 -47 -37 -24 -16 -51
-33 -59 -39 -8 -5 -23 -17 -33 -25 -41 -35 -49 -40 -60 -40 -6 0 -20 -11 -31
-25 -11 -14 -25 -24 -31 -22 -5 1 -20 -7 -33 -20 -13 -13 -30 -23 -39 -23 -8
0 -15 -4 -15 -10 0 -20 -91 -47 -230 -70 -80 -12 -150 -27 -157 -32 -7 -5 -21
-7 -33 -3 -12 4 -20 2 -20 -6 0 -7 -10 -9 -30 -5 -16 3 -30 2 -30 -3 0 -5 -12
-11 -27 -14 -34 -7 -244 4 -239 12 2 3 -17 5 -42 3 -71 -5 -271 15 -287 28 -8
6 -18 9 -23 6 -5 -3 -31 0 -58 8 -27 7 -80 19 -119 25 -247 43 -365 74 -365
94 0 5 -4 6 -9 3 -11 -7 -71 13 -71 24 0 5 -8 8 -17 8 -10 -1 -38 8 -62 20
-25 12 -49 22 -54 22 -4 0 -33 11 -63 25 -30 14 -61 25 -69 25 -21 0 -121 46
-129 59 -4 6 -16 11 -27 11 -11 0 -34 8 -52 17 -46 25 -136 61 -168 68 -15 4
-33 13 -40 21 -6 8 -18 14 -25 14 -8 0 -14 4 -14 9 0 5 -10 13 -22 16 -13 4
-45 17 -73 30 -27 13 -87 40 -132 61 -46 21 -83 41 -83 44 0 7 -74 40 -103 46
-22 5 -77 45 -77 56 0 4 -7 8 -15 8 -8 0 -15 5 -15 10 0 6 -7 10 -15 10 -8 0
-15 4 -15 9 0 4 -26 22 -58 39 -31 17 -67 42 -79 55 -12 14 -43 38 -70 53 -26
16 -49 32 -51 36 -2 4 -9 8 -15 8 -7 0 -26 13 -44 28 -81 69 -98 82 -109 82
-17 0 -117 99 -134 132 -7 16 -16 26 -19 23 -3 -3 -12 7 -21 23 -21 39 -81
122 -102 141 -10 8 -18 21 -18 27 0 7 -7 14 -15 18 -8 3 -15 12 -15 20 0 7 -7
16 -15 20 -8 3 -15 12 -15 20 0 7 -7 17 -16 20 -8 3 -13 10 -10 15 4 5 3 11
-1 13 -5 1 -28 32 -53 68 -24 36 -48 67 -52 68 -4 2 -8 10 -8 18 0 8 -4 14
-10 14 -5 0 -10 7 -10 15 0 9 -7 18 -15 21 -8 4 -15 11 -15 16 0 6 -18 37 -40
70 -22 33 -40 64 -40 69 0 5 -4 9 -10 9 -5 0 -10 5 -10 10 0 6 -17 37 -37 68
-21 31 -43 68 -50 81 -34 61 -106 151 -138 171 -19 12 -35 25 -35 29 0 4 -6 8
-12 8 -7 1 -46 11 -85 22 -137 39 -259 19 -346 -59 -82 -73 -107 -177 -107
-445 1 -109 6 -151 30 -255 17 -69 42 -174 56 -235 48 -207 70 -283 95 -325 5
-8 12 -21 16 -28 3 -8 15 -24 27 -37 31 -34 71 -91 68 -99 -2 -4 3 -13 10 -20
7 -8 20 -24 28 -36 8 -13 36 -52 63 -87 26 -35 47 -68 47 -72 0 -5 7 -12 16
-15 8 -3 13 -10 10 -15 -3 -5 1 -11 9 -15 8 -3 15 -12 15 -20 0 -7 7 -16 15
-20 8 -3 15 -11 15 -18 0 -13 116 -138 128 -138 4 0 20 -14 36 -30 16 -17 35
-30 42 -30 6 0 14 -7 18 -15 3 -8 11 -15 18 -15 7 0 32 -17 55 -37 23 -21 65
-54 93 -73 28 -19 60 -43 71 -52 10 -10 23 -18 27 -18 5 0 44 -27 88 -60 43
-33 96 -68 117 -77 20 -9 37 -20 37 -25 0 -4 7 -8 15 -8 9 0 18 -7 21 -15 4
-8 12 -15 20 -15 8 0 14 -4 14 -10 0 -5 7 -10 15 -10 8 0 15 -4 15 -10 0 -5 5
-10 12 -10 6 0 19 -6 27 -14 9 -8 40 -26 69 -41 28 -14 52 -30 52 -36 0 -5 3
-8 8 -8 17 3 30 -2 52 -21 13 -11 29 -20 36 -20 7 0 14 -4 16 -9 2 -5 35 -32
73 -62 39 -29 73 -58 78 -65 4 -7 25 -23 47 -35 22 -13 40 -27 40 -31 0 -12
52 -57 66 -58 6 0 19 -9 29 -20 10 -11 41 -34 69 -52 28 -18 57 -38 64 -46 8
-7 29 -19 48 -27 19 -8 34 -19 34 -24 0 -6 7 -11 15 -11 8 0 15 -4 15 -10 0
-5 7 -10 15 -10 8 0 15 -4 15 -10 0 -5 6 -10 14 -10 7 0 27 -12 44 -27 102
-90 126 -109 148 -121 13 -7 24 -16 24 -20 0 -4 14 -22 30 -41 17 -18 30 -37
30 -41 0 -16 148 -157 178 -171 18 -7 32 -17 32 -21 0 -5 7 -8 17 -8 9 0 31
-11 49 -25 18 -14 39 -25 48 -25 8 0 21 -6 28 -12 41 -37 200 -88 276 -88 13
0 21 -3 19 -7 -3 -5 49 -9 115 -10 67 -1 128 -5 137 -9 21 -8 229 -6 244 3 6
4 29 10 52 14 22 4 56 12 75 18 19 5 71 19 115 31 44 11 96 25 115 31 47 14
235 55 340 75 47 9 153 20 235 25 570 32 1068 95 1096 140 4 6 12 8 18 5 6 -4
11 -2 11 4 0 7 7 9 16 6 10 -4 13 -2 8 6 -5 7 0 9 14 6 12 -4 22 -2 22 4 0 6
7 7 16 4 8 -3 13 -2 10 2 -3 5 50 26 117 46 134 41 292 111 371 163 28 18 56
33 62 33 6 0 17 7 24 15 7 9 19 14 27 11 8 -3 12 -2 8 3 -3 5 11 15 30 21 42
14 164 80 201 109 15 12 35 21 45 21 11 0 19 5 19 10 0 6 12 16 28 23 15 7 45
24 67 38 22 14 47 29 55 33 8 4 33 18 55 31 22 13 55 31 73 41 17 9 32 20 32
25 0 5 6 9 13 9 7 0 26 14 42 30 16 17 33 30 37 30 5 0 22 16 39 35 17 19 35
35 39 35 10 0 81 63 189 168 41 39 77 72 80 72 3 0 29 24 56 52 28 28 66 57
85 65 67 27 105 48 118 66 7 9 19 17 27 17 7 0 15 3 17 8 2 4 26 25 55 46 29
22 54 45 57 53 3 7 12 13 21 13 8 0 15 6 15 13 0 6 18 22 41 35 22 13 43 30
46 38 3 8 9 14 13 14 5 0 21 12 37 28 80 76 157 142 165 142 5 0 7 4 4 9 -3 4
15 19 40 31 25 13 55 33 67 45 12 12 41 32 65 45 23 13 42 27 42 32 0 4 7 8
15 8 8 0 15 5 15 10 0 6 7 10 15 10 8 0 15 3 15 8 1 4 25 23 55 42 30 19 55
38 55 43 0 4 7 7 15 7 8 0 15 4 15 10 0 5 15 16 33 25 17 8 46 29 64 45 18 17
34 30 37 30 7 0 60 37 154 108 46 34 88 59 94 56 6 -4 8 -3 5 3 -3 5 36 19 90
32 53 12 121 34 152 48 56 25 56 25 271 18 260 -8 343 -13 350 -23 10 -15 88
-72 97 -72 6 0 22 -11 37 -25 15 -14 29 -25 31 -25 10 0 195 -144 195 -152 0
-4 7 -8 15 -8 7 0 18 -6 22 -13 4 -7 41 -41 82 -75 40 -35 88 -80 105 -100 17
-20 49 -55 72 -78 43 -43 82 -122 82 -164 0 -14 5 -43 12 -65 6 -22 13 -49 15
-60 1 -11 5 -27 8 -35 3 -8 14 -42 26 -76 14 -42 22 -94 25 -175 3 -63 10
-156 16 -207 6 -51 7 -98 4 -104 -10 -15 -5 -141 5 -151 12 -12 166 -44 252
-53 146 -14 490 -8 547 10 9 3 34 8 55 10 21 3 41 8 46 10 5 3 33 8 62 10 154
14 268 39 342 77 32 16 62 29 68 29 5 0 28 9 51 20 23 11 59 22 82 25 23 3 66
12 96 21 30 9 79 22 109 29 30 8 66 22 80 33 14 10 42 26 61 35 19 10 49 27
65 37 17 11 37 23 45 26 8 4 34 25 58 47 39 38 42 45 42 94 0 49 -3 56 -39 89
-41 36 -68 94 -55 115 4 7 9 26 11 43 1 17 10 61 19 99 23 92 15 206 -22 317
-26 79 -33 90 -104 160 -43 41 -88 83 -101 93 -29 22 -105 57 -125 57 -8 0
-14 4 -14 9 0 5 -24 14 -52 21 -29 7 -66 18 -83 25 -16 7 -78 25 -137 39 -107
26 -169 61 -153 86 4 6 2 16 -3 23 -5 7 -10 26 -10 43 0 17 -5 58 -11 91 -25
137 -30 302 -15 472 8 91 19 180 25 196 34 103 55 599 30 739 -9 50 -88 304
-112 361 -13 29 -30 55 -61 93 -16 18 -28 37 -28 42 0 6 -6 10 -14 10 -7 0
-30 18 -50 40 -20 22 -39 40 -44 40 -4 0 -13 9 -20 20 -7 11 -19 20 -28 20 -9
0 -28 9 -44 20 -15 11 -30 16 -34 12 -4 -3 -10 -2 -14 4 -12 18 -180 33 -267
24 -78 -7 -175 -41 -175 -61 0 -5 -11 -15 -25 -21 -14 -6 -25 -15 -25 -20 0
-5 -16 -24 -35 -44 -19 -19 -35 -37 -35 -40 0 -4 -10 -14 -22 -24 -23 -18
-126 -156 -150 -201 -24 -44 -140 -214 -166 -241 -14 -16 -30 -28 -34 -28 -5
0 -31 -16 -59 -35 -28 -19 -56 -35 -62 -35 -6 0 -20 -9 -31 -19 -12 -11 -39
-21 -61 -23 -22 -2 -46 -7 -53 -11 -22 -14 -182 -21 -182 -8 0 7 -21 11 -59
11 -33 0 -63 5 -66 10 -3 6 -28 10 -55 10 -27 0 -52 5 -55 10 -3 6 -17 10 -30
10 -13 0 -27 4 -30 10 -3 5 -19 7 -35 3 -17 -3 -30 -1 -30 4 0 6 -26 13 -59
17 -32 4 -75 16 -97 26 -21 11 -47 20 -59 20 -11 0 -36 8 -55 19 -19 10 -60
24 -90 31 -30 7 -60 17 -66 21 -16 13 -105 39 -132 39 -13 0 -20 4 -17 10 3 6
-1 7 -10 4 -8 -3 -34 3 -58 14 -23 11 -96 32 -162 46 -66 15 -174 43 -240 62
-66 20 -147 39 -180 44 -71 11 -198 3 -240 -15 -16 -7 -77 -25 -135 -39 -58
-14 -130 -33 -160 -41 -30 -9 -63 -14 -73 -11 -9 2 -15 1 -12 -4 3 -4 -16 -11
-43 -15 -76 -11 -302 -17 -302 -8 0 4 -11 9 -25 9 -28 2 -200 86 -245 120 -8
7 -29 15 -47 19 -18 3 -43 15 -56 25 -41 33 -261 140 -275 135 -7 -3 -36 19
-65 48 -91 92 -278 167 -418 167 -95 0 -289 -33 -304 -53 -5 -7 -22 -18 -38
-24 -15 -7 -32 -24 -37 -38 -5 -14 -14 -25 -19 -25 -5 0 -11 -8 -14 -17 -4
-10 -13 -36 -22 -58 -17 -42 -22 -166 -10 -227 9 -48 38 -142 45 -148 10 -9
37 -55 36 -62 -1 -4 9 -15 22 -23 12 -9 22 -20 22 -25 0 -16 124 -150 139
-150 5 0 44 -36 122 -112 21 -21 41 -38 44 -38 3 0 25 -18 48 -41 23 -22 54
-47 70 -55 15 -8 27 -19 27 -24 0 -5 18 -19 40 -31 22 -13 47 -33 55 -46 9
-13 20 -23 25 -23 5 0 20 -10 34 -22 13 -13 49 -41 80 -63 31 -22 66 -48 78
-57 12 -10 28 -19 37 -19 9 -1 -2 -5 -24 -10 -22 -4 -116 -8 -210 -7 -234 1
-266 -9 -378 -118 -45 -45 -92 -84 -105 -88 -12 -4 -19 -12 -16 -18 5 -8 -30
-9 -122 -5 -71 4 -385 10 -699 13 -313 4 -574 10 -580 14 -5 4 -53 17 -105 29
-110 26 -150 40 -150 52 0 5 -5 9 -12 9 -6 0 -25 10 -42 23 -36 27 -96 59
-144 77 -18 7 -30 15 -27 18 3 3 -14 14 -37 24 -22 10 -46 24 -52 32 -6 7 -27
22 -46 32 -32 18 -80 52 -122 89 -10 8 -22 15 -27 15 -5 0 -23 14 -41 30 -18
17 -36 30 -41 30 -4 0 -12 6 -16 14 -4 8 -32 30 -61 49 -29 20 -60 43 -70 51
-9 9 -32 28 -50 43 -17 16 -44 38 -57 51 -14 12 -30 22 -35 22 -5 0 -18 12
-29 26 -12 15 -21 23 -21 18 0 -4 -13 5 -29 20 -17 16 -40 34 -53 41 -13 6
-22 17 -20 24 1 6 -5 14 -15 18 -19 7 -53 39 -53 51 -1 12 -55 68 -74 75 -9 4
-19 15 -23 24 -8 23 -80 103 -86 96 -3 -2 -8 5 -12 16 -3 11 -22 39 -41 62
-19 22 -34 45 -34 51 0 5 -6 24 -14 41 -22 49 -106 291 -120 344 -7 26 -11 54
-9 61 3 6 -1 12 -7 12 -7 0 -10 7 -7 15 4 8 2 17 -4 20 -5 4 -7 10 -4 15 3 5
1 11 -5 15 -5 3 -10 14 -10 24 0 21 -22 71 -32 71 -5 0 -8 7 -8 14 0 8 -15 26
-32 38 -87 63 -202 82 -331 54z"/>
</g>
</svg>
